<?xml version="1.0" encoding="utf-8"?>
<!-- Generator: Adobe Illustrator 25.3.1, SVG Export Plug-In . SVG Version: 6.00 Build 0)  -->
<svg version="1.1" id="Layer_10" xmlns="http://www.w3.org/2000/svg" xmlns:xlink="http://www.w3.org/1999/xlink" x="0px" y="0px"
	 viewBox="0 0 85.2 94" style="enable-background: new 0 0 85.2 94;" xml:space="preserve">
<style type="text/css">
	.st0 {
		fill: url(#SVGID_1_);
	}

	.st1 {
		fill: none;
		stroke: #000;
		stroke-linecap: round;
		stroke-miterlimit: 10;
		stroke-width: 3;
	}

	.st2 {
		fill: none;
		stroke: #000;
		stroke-linecap: round;
		stroke-linejoin: round;
		stroke-width: 3;
	}
</style>
<g id="Assemble">
	<g id="Icon_Components">
		
			<linearGradient id="SVGID_1_" gradientUnits="userSpaceOnUse" x1="41.0006" y1="76" x2="41.0006" y2="16" gradientTransform="matrix(1 0 0 -1 0 93)">
			<stop  offset="0" style="stop-color: #8dc8e8;"/>
			<stop  offset="1" style="stop-color: #a5d9e7;"/>
		</linearGradient>
		<rect x="27.1" y="17" class="st0" width="27.8" height="60"/>
		<line class="st1" x1="18.2" y1="79.6" x2="11.2" y2="79.6"/>
		<path class="st2" d="M23.3,11C23.3,11,1,22,1,47c0,0-0.4,21.3,17.2,32.6l-2.4-6.6"/>
		<line class="st1" x1="77.1" y1="64.7" x2="77.5" y2="71.7"/>
		<path class="st2" d="M61,81.4c0,0,11.2-6.3,16.1-16.7l-6.4,2.8"/>
		<path class="st1" d="M54,93c0,0-0.3-13-13.6-13.4C27,80,26.7,93,26.7,93"/>
		<circle class="st2" cx="40.5" cy="67.8" r="8.4"/>
		<circle class="st2" cx="70.5" cy="35.1" r="8.4"/>
		<path class="st1" d="M84.2,60.4c0,0-0.3-13-13.6-13.4c-13.3,0.4-13.6,13.4-13.6,13.4"/>
		<path class="st1" d="M54,34.7c0,0-0.3-13-13.6-13.4C27,21.7,26.7,34.7,26.7,34.7"/>
		<circle class="st2" cx="40.5" cy="9.5" r="8.4"/>
	</g>
</g>
</svg>
