<?xml version="1.0" encoding="utf-8"?>
<!-- Generator: Adobe Illustrator 25.3.1, SVG Export Plug-In . SVG Version: 6.00 Build 0)  -->
<svg version="1.1" id="Layer_10" xmlns="http://www.w3.org/2000/svg" xmlns:xlink="http://www.w3.org/1999/xlink" x="0px" y="0px"
	 viewBox="0 0 101.8 105.5" style="enable-background:new 0 0 101.8 105.5;" xml:space="preserve">
<style type="text/css">
	.st0{fill:url(#SVGID_1_);}
	.st1{fill:none;stroke:#000000;stroke-width:2;stroke-linecap:round;stroke-miterlimit:10;}
	.st2{fill:none;stroke:#000000;stroke-width:2;stroke-miterlimit:10;}
	.st3{fill:none;stroke:#000000;stroke-width:2;stroke-linejoin:round;}
</style>
<g id="_HACK">
	<g id="Icon_Components">
		
			<linearGradient id="SVGID_1_" gradientUnits="userSpaceOnUse" x1="33.8122" y1="57.29" x2="61.6122" y2="57.29" gradientTransform="matrix(1 0 0 -1 0 115.58)">
			<stop  offset="0" style="stop-color:#8DC8E8"/>
			<stop  offset="1" style="stop-color:#A5D9E7"/>
		</linearGradient>
		<rect x="33.8" y="28.3" class="st0" width="27.8" height="60"/>
		<line class="st1" x1="81.6" y1="1" x2="66.1" y2="39.4"/>
		<line class="st1" x1="60.3" y1="12.7" x2="92.7" y2="12.7"/>
		<line class="st1" x1="70.6" y1="9.3" x2="55.1" y2="47.7"/>
		<line class="st1" x1="49.3" y1="21" x2="81.7" y2="21"/>
		<circle class="st2" cx="96.8" cy="23.3" r="4.1"/>
		<polyline class="st3" points="93.4,26.7 62.3,58.7 34,58.7 34,87 23.3,97.4 		"/>
		<rect x="43.3" y="67.4" class="st3" width="10" height="10"/>
		<path class="st1" d="M55.7,11.9c0,0-24.1-4.3-41.2,13.4C-8.3,49,1.9,78.3,14.9,90.9c10.8,10.4,19.9,12.9,32.8,13.6
			c17.4,1,32.2-12.8,32.2-12.8s23.8-20.6,10.2-53.4"/>
	</g>
</g>
</svg>
