<?xml version="1.0" encoding="utf-8"?>
<!-- Generator: Adobe Illustrator 25.3.1, SVG Export Plug-In . SVG Version: 6.00 Build 0)  -->
<svg version="1.1" id="Layer_10" xmlns="http://www.w3.org/2000/svg" xmlns:xlink="http://www.w3.org/1999/xlink" x="0px" y="0px"
	 viewBox="0 0 92.5 92.5" style="enable-background:new 0 0 92.5 92.5;" xml:space="preserve">
<style type="text/css">
	.st0{fill:url(#SVGID_1_);stroke:url(#SVGID_2_);stroke-miterlimit:10;}
	.st1{fill:none;stroke:#000000;stroke-width:2;stroke-miterlimit:10;}
	.st2{fill:none;stroke:#000000;stroke-width:2;stroke-linecap:round;stroke-miterlimit:10;}
	.st3{fill:none;stroke:#000000;stroke-width:2;stroke-linecap:round;stroke-linejoin:round;}
</style>
<g id="Participate">
	<g id="Icon_Components">
		
			<linearGradient id="SVGID_1_" gradientUnits="userSpaceOnUse" x1="486.82" y1="-1485.915" x2="458.53" y2="-1485.915" gradientTransform="matrix(6.123234e-17 -1 -1 -6.123234e-17 -1438.87 519.56)">
			<stop  offset="0" style="stop-color:#A5D9E7"/>
			<stop  offset="1" style="stop-color:#8DC8E8"/>
		</linearGradient>
		
			<linearGradient id="SVGID_2_" gradientUnits="userSpaceOnUse" x1="458.03" y1="-1485.915" x2="487.32" y2="-1485.915" gradientTransform="matrix(6.123234e-17 -1 -1 -6.123234e-17 -1438.87 519.56)">
			<stop  offset="0" style="stop-color:#8DC8E8"/>
			<stop  offset="1" style="stop-color:#A5D9E7"/>
		</linearGradient>
		<rect x="32.9" y="32.7" class="st0" width="28.3" height="28.3"/>
		<circle class="st1" cx="46.5" cy="46.3" r="14.7"/>
		<path class="st2" d="M17.8,55.5c0,0-9,9.4,0.2,19.1c9.7,9.1,19.1,0.2,19.1,0.2"/>
		<circle class="st3" cx="9.5" cy="82.9" r="8.4"/>
		<circle class="st3" cx="83.1" cy="83" r="8.4"/>
		<path class="st2" d="M55.6,74.8c0,0,9.4,9,19.2-0.2c9.1-9.7,0.1-19.1,0.1-19.1"/>
		<circle class="st3" cx="10.7" cy="10.1" r="8.5"/>
		<path class="st2" d="M38.1,18.3c0,0-9.4-9-19.1,0.1c-9.1,9.7-0.1,19.2-0.1,19.2"/>
		<path class="st2" d="M74.3,36.8c0,0,9-9.4-0.2-19.1C64.5,8.5,55,17.5,55,17.5"/>
		<circle class="st3" cx="82.7" cy="9.5" r="8.4"/>
	</g>
</g>
</svg>
