<?xml version="1.0" encoding="utf-8"?>
<!-- Generator: Adobe Illustrator 25.3.1, SVG Export Plug-In . SVG Version: 6.00 Build 0)  -->
<svg version="1.1" id="Layer_10" xmlns="http://www.w3.org/2000/svg" xmlns:xlink="http://www.w3.org/1999/xlink" x="0px" y="0px"
	 viewBox="0 0 95.4 95.1" style="enable-background: new 0 0 95.4 95.1;" xml:space="preserve">
<style type="text/css">
	.st0 {
		fill: url(#SVGID_1_);
	}

	.st1 {
		fill: none;
		stroke: #000;
		stroke-linecap: round;
		stroke-miterlimit: 10;
		stroke-width: 3;
	}

	.st2 {
		fill: none;
		stroke: #000;
		stroke-miterlimit: 10;
		stroke-width: 3;
	}
</style>
<g id="Locations">
	<g id="Icon_Components">
		
			<linearGradient id="SVGID_1_" gradientUnits="userSpaceOnUse" x1="48.0471" y1="16.6091" x2="48.0471" y2="76.6091" gradientTransform="matrix(1 0 0 -1 0 94.2183)">
			<stop  offset="0" style="stop-color: #8dc8e8;"/>
			<stop  offset="1" style="stop-color: #a5d9e7;"/>
		</linearGradient>
		<rect x="34.1" y="17.6" class="st0" width="27.8" height="60"/>
		<path class="st1" d="M51.4,1.1c0,0-24.4-2-39.8,17.3C-8.8,44,4.1,72.2,18.2,83.5c11.7,9.3,21,11,33.9,10.5
			C69.6,93.4,83,78.3,83,78.3s21.7-22.7,5.2-54.2"/>
		<line class="st2" x1="77.8" y1="15.6" x2="71.8" y2="31.1"/>
		<line class="st1" x1="60.2" y1="15.6" x2="66.2" y2="31.1"/>
		<path class="st1" d="M60.2,15.6c-0.2-0.4-0.3-0.9-0.4-1.3c-0.2-1.2-0.3-2.4-0.1-3.5c0.2-0.8,0.4-1.5,0.7-2.2
			c0.6-1.5,1.7-2.8,3-3.7c1-0.7,2-1.2,3.2-1.5c1.2-0.3,2.5-0.4,3.8-0.2c2.2,0.3,4.1,1.4,5.6,3c1.9,2,2.7,4.8,2.2,7.5
			c-0.1,0.7-0.3,1.4-0.5,2.1"/>
		<path class="st1" d="M71.8,31.1c-0.1,0.3-0.2,0.6-0.4,0.9c-0.1,0.2-0.2,0.3-0.3,0.4c-0.1,0.1-0.2,0.2-0.4,0.3
			c-0.1,0.1-0.3,0.2-0.4,0.3c-0.1,0.1-0.3,0.1-0.4,0.2c-0.1,0-0.3,0.1-0.4,0.1h-0.3c-0.1,0-0.2,0-0.3,0h-0.3l-0.3-0.1L68,33.2
			l-0.2-0.1l-0.2-0.1l-0.2-0.2c-0.1-0.1-0.2-0.1-0.3-0.2c-0.1-0.1-0.2-0.2-0.2-0.3c-0.1-0.1-0.1-0.2-0.2-0.3c0-0.1-0.1-0.2-0.1-0.3
			l-0.2-0.4l-0.1-0.3"/>
		<circle class="st2" cx="69" cy="12.7" r="4.1"/>
		<line class="st2" x1="56.8" y1="58.9" x2="50.9" y2="74.5"/>
		<line class="st1" x1="39.2" y1="58.9" x2="45.2" y2="74.5"/>
		<path class="st1" d="M39.2,58.9c-0.2-0.4-0.3-0.9-0.4-1.3c-0.3-1.2-0.3-2.4-0.1-3.6c0.2-0.8,0.4-1.5,0.7-2.2
			c0.6-1.5,1.7-2.8,3-3.7c1-0.7,2-1.2,3.1-1.5c1.2-0.3,2.5-0.4,3.8-0.2c2.2,0.3,4.1,1.4,5.6,3c1.9,2,2.7,4.8,2.3,7.6
			c-0.1,0.7-0.3,1.4-0.5,2.1"/>
		<path class="st1" d="M50.9,74.5c-0.1,0.3-0.2,0.6-0.4,0.9c-0.1,0.2-0.2,0.3-0.3,0.4c-0.1,0.1-0.3,0.2-0.4,0.3
			c-0.1,0.1-0.3,0.2-0.4,0.3c-0.1,0.1-0.3,0.1-0.4,0.2c-0.1,0-0.3,0.1-0.4,0.1c-0.1,0-0.2,0-0.3,0c-0.1,0-0.2,0-0.3,0
			c-0.1,0-0.2,0-0.3,0h-0.3L47,76.6l-0.2-0.1l-0.2-0.1l-0.2-0.2c-0.1-0.1-0.2-0.2-0.3-0.3c-0.1-0.1-0.2-0.2-0.3-0.3
			c-0.1-0.1-0.1-0.2-0.2-0.3c-0.1-0.1-0.1-0.2-0.2-0.3l-0.2-0.4l-0.1-0.2"/>
		<circle class="st2" cx="48" cy="56.1" r="4.1"/>
		<line class="st2" x1="34.4" y1="33.9" x2="28.5" y2="49.5"/>
		<line class="st1" x1="16.8" y1="33.9" x2="22.8" y2="49.5"/>
		<path class="st1" d="M16.8,33.9c-0.2-0.4-0.3-0.9-0.4-1.3c-0.2-1.2-0.3-2.4-0.1-3.6c0.2-0.8,0.4-1.5,0.8-2.2
			c0.6-1.5,1.7-2.8,3-3.7c1-0.7,2-1.2,3.1-1.5c1.2-0.3,2.5-0.4,3.8-0.2c2.2,0.3,4.1,1.4,5.6,3c1.9,2,2.7,4.8,2.3,7.6
			c-0.1,0.7-0.3,1.4-0.5,2.1"/>
		<path class="st1" d="M28.5,49.5c-0.1,0.3-0.2,0.6-0.4,0.9c-0.1,0.2-0.2,0.3-0.3,0.4c-0.1,0.1-0.3,0.2-0.4,0.3
			c-0.1,0.1-0.3,0.2-0.4,0.3c-0.1,0.1-0.3,0.1-0.4,0.2c-0.1,0-0.3,0.1-0.4,0.1h-0.3c-0.1,0-0.2,0-0.3,0c-0.1,0-0.2,0-0.3,0h-0.3
			l-0.3-0.1l-0.2-0.1l-0.2-0.1l-0.2-0.2c-0.1-0.1-0.2-0.2-0.3-0.3c-0.1-0.1-0.2-0.2-0.2-0.3c-0.1-0.1-0.1-0.2-0.2-0.3L23,50.1
			l-0.2-0.4l-0.1-0.2"/>
		<circle class="st2" cx="25.6" cy="31.1" r="4.1"/>
	</g>
</g>
</svg>
