<svg data-name="Layer 10" xmlns="http://www.w3.org/2000/svg" viewBox="0 0 53.11 84.1"><defs><linearGradient id="a" x1="25.74" y1="50.09" x2="25.74" y2="78.38" gradientUnits="userSpaceOnUse"><stop offset="0" stop-color="#a5d9e7"/><stop offset="1" stop-color="#8dc8e8"/></linearGradient></defs><g data-name="Icon Components"><path d="M25.55 55.21a1 1 0 01-1-1V40.76a1 1 0 012 0v13.45a1 1 0 01-1 1z"/><path d="M25.51 41.52a5.08 5.08 0 115.08-5.08 5.09 5.09 0 01-5.08 5.08zm0-8.16a3.08 3.08 0 103.08 3.08 3.09 3.09 0 00-3.08-3.08z"/><path fill="url(#a)" d="M11.6 50.09h28.29v28.29H11.6z"/><path d="M36.12 74.59H14.89a1 1 0 010-2h21.23a1 1 0 110 2zM35.73 66.33H15.28a1 1 0 010-2h20.45a1 1 0 110 2zM32.43 83.1H19a1 1 0 010-2h13.43a1 1 0 110 2zM49.13 40.06a1 1 0 01-.9-1.45 22.25 22.25 0 002.21-7.25c2.1-16.5-10.61-25.67-20.31-26.92-7.71-1-12.19.82-17.77 4.5C5 13.79 3 24 3 24.09a24.58 24.58 0 002 14.28 1 1 0 01-1.81.86A26.23 26.23 0 011.06 23.7c.08-.42 2.11-11.11 10.2-16.43C17.1 3.42 22.1 1.4 30.39 2.46c10.51 1.35 24.31 11.28 22 29.15a24.3 24.3 0 01-2.39 7.9 1 1 0 01-.87.55z"/></g></svg>
