<svg xmlns="http://www.w3.org/2000/svg" width="67" height="63.001" viewBox="0 0 67 63.001">
  <g id="SVG_-_Agenda" data-name="SVG - Agenda" transform="translate(22912 22574.999)">
    <g id="_004-calendar" data-name="004-calendar" transform="translate(-22912 -22575.5)">
      <path id="Path_58" data-name="Path 58" d="M358.493,24.784a2.25,2.25,0,0,0-3.183,0l-9.156,9.156a.609.609,0,0,1-.861,0L341.056,29.7a2.251,2.251,0,1,0-3.183,3.183l6.26,6.26a2.251,2.251,0,0,0,3.183,0l11.178-11.178a2.25,2.25,0,0,0,0-3.183Zm0,0" transform="translate(-293.086 -20.533)" fill="rgba(255,255,255,0.98)"/>
      <path id="Path_60" data-name="Path 60" d="M61.5,3.541l-.7.7A12.394,12.394,0,0,0,41.5,6.21H38.061V4.795a.981.981,0,0,0-1.963,0V6.21H32.439V4.795a.982.982,0,0,0-1.963,0V6.21H26.816V4.795a.981.981,0,1,0-1.963,0V6.21H21.194V4.795a.981.981,0,0,0-1.963,0V6.21h-3.66V4.795a.981.981,0,0,0-1.963,0V6.21H9.948V4.795a.981.981,0,1,0-1.963,0V6.21H2.8A2.8,2.8,0,0,0,0,9.011V60.7a2.8,2.8,0,0,0,2.8,2.8H23.544a.981.981,0,0,0,0-1.963H2.8a.84.84,0,0,1-.839-.838V19.581H41.5a12.4,12.4,0,0,0,13.831,5.238V60.7a.839.839,0,0,1-.838.838H28.124a.981.981,0,1,0,0,1.963H62.053a3.115,3.115,0,0,0,3.078-3.587l-2.4-15.624a.981.981,0,1,0-1.94.3l2.4,15.624a1.149,1.149,0,0,1-1.137,1.325h-4.89a2.977,2.977,0,0,0,.128-.838V24.075q.16-.077.318-.158l2.475,16.092a.981.981,0,0,0,1.94-.3l-2.6-16.942a12.372,12.372,0,0,0,4.6-12.634l2.041-2.041A3.22,3.22,0,1,0,61.5,3.541ZM40.472,17.618H1.963V9.011A.84.84,0,0,1,2.8,8.173H7.985v3.65a.981.981,0,1,0,1.963,0V8.173h3.659v3.65a.982.982,0,0,0,1.963,0V8.173h3.659v3.65a.981.981,0,1,0,1.963,0V8.173h3.659v3.65a.981.981,0,1,0,1.963,0V8.173h3.66v3.65a.981.981,0,1,0,1.963,0V8.173H36.1v3.65a.981.981,0,1,0,1.963,0V8.173h2.411a12.387,12.387,0,0,0,0,9.444Zm11.461,5.711a10.433,10.433,0,1,1,7.484-17.7l-6.756,6.756L48.711,8.433a3.22,3.22,0,1,0-4.554,4.554l6.226,6.226a3.219,3.219,0,0,0,4.554,0l7.375-7.374a10.445,10.445,0,0,1-10.379,11.49ZM64.668,6.707,53.549,17.825a1.257,1.257,0,0,1-1.778,0L45.545,11.6a1.257,1.257,0,0,1,1.778-1.778l4.215,4.216a1.59,1.59,0,0,0,2.245,0L62.89,4.929a1.256,1.256,0,0,1,1.777,0h0a1.257,1.257,0,0,1,0,1.778Zm0,0" transform="translate(0 0)" fill="rgba(29,13,1,0.98)"/>
      <path id="Path_61" data-name="Path 61" d="M60.8,212.018h39.672a.981.981,0,1,0,0-1.963H60.8a.981.981,0,1,0,0,1.963Zm0,0" transform="translate(-51.992 -182.132)"/>
      <path id="Path_62" data-name="Path 62" d="M60.8,256.611h39.672a.981.981,0,1,0,0-1.963H60.8a.981.981,0,1,0,0,1.963Zm0,0" transform="translate(-51.992 -220.89)"/>
      <path id="Path_63" data-name="Path 63" d="M60.8,301.209h39.672a.981.981,0,1,0,0-1.963H60.8a.981.981,0,1,0,0,1.963Zm0,0" transform="translate(-51.992 -259.652)"/>
      <path id="Path_64" data-name="Path 64" d="M60.8,345.8h39.672a.982.982,0,1,0,0-1.963H60.8a.982.982,0,0,0,0,1.963Zm0,0" transform="translate(-51.992 -298.41)"/>
      <path id="Path_65" data-name="Path 65" d="M60.8,390.4h39.672a.981.981,0,1,0,0-1.963H60.8a.981.981,0,1,0,0,1.963Zm0,0" transform="translate(-51.992 -337.172)"/>
    </g>
  </g>
</svg>
