<svg xmlns="http://www.w3.org/2000/svg" xmlns:xlink="http://www.w3.org/1999/xlink" width="67.406" height="67.406" viewBox="0 0 67.406 67.406">
  <defs>
    <linearGradient id="linear-gradient" x1="0.5" x2="0.5" y2="1" gradientUnits="objectBoundingBox">
      <stop offset="0" stop-color="#a5d9e7"/>
      <stop offset="1" stop-color="#8dc8e8"/>
    </linearGradient>
  </defs>
  <g id="Indigitous_Icon_Countries_Black" transform="translate(0.144 0.23)">
    <rect id="Rectangle_2152" data-name="Rectangle 2152" width="67" height="67" transform="translate(0.247)" fill="rgba(255,255,255,0)"/>
    <g id="Global_Impact" data-name="Global Impact" transform="translate(0.857 0.77)">
      <g id="Icon_Components" data-name="Icon Components" transform="translate(0 0)">
        <line id="Line_87" data-name="Line 87" y2="65.405" transform="translate(32.703 0.344)" fill="none" stroke="#000" stroke-miterlimit="10" stroke-width="2"/>
        <line id="Line_88" data-name="Line 88" x2="65.399" transform="translate(0.147 32.134)" fill="none" stroke="#000" stroke-miterlimit="10" stroke-width="2"/>
        <rect id="Rectangle_2148" data-name="Rectangle 2148" width="19.845" height="19.845" transform="translate(22.784 23.128)" fill="url(#linear-gradient)"/>
        <ellipse id="Ellipse_122" data-name="Ellipse 122" cx="2.918" cy="2.918" rx="2.918" ry="2.918" transform="translate(29.785 30.128)" fill="none" stroke="#000" stroke-linecap="round" stroke-linejoin="round" stroke-width="2"/>
        <ellipse id="Ellipse_123" data-name="Ellipse 123" cx="2.918" cy="2.918" rx="2.918" ry="2.918" transform="translate(13.679 46.739)" fill="none" stroke="#000" stroke-linecap="round" stroke-linejoin="round" stroke-width="2"/>
        <path id="Path_3745" data-name="Path 3745" d="M87.641,48.89S68,56.052,68,81.593a54.827,54.827,0,0,0,2.189,14.373" transform="translate(-54.938 -48.89)" fill="none" stroke="#000" stroke-miterlimit="10" stroke-width="2"/>
        <path id="Path_3746" data-name="Path 3746" d="M89.671,136.551A30.22,30.22,0,0,1,74.8,123.44" transform="translate(-56.968 -71.145)" fill="none" stroke="#000" stroke-miterlimit="10" stroke-width="2"/>
        <ellipse id="Ellipse_124" data-name="Ellipse 124" cx="2.918" cy="2.918" rx="2.918" ry="2.918" transform="translate(45.891 12.83)" fill="none" stroke="#000" stroke-linecap="round" stroke-linejoin="round" stroke-width="2"/>
        <path id="Path_3747" data-name="Path 3747" d="M96,122.09s19.641-7.155,19.641-32.7A54.826,54.826,0,0,0,113.453,75" transform="translate(-63.297 -56.685)" fill="none" stroke="#000" stroke-miterlimit="10" stroke-width="2"/>
        <path id="Path_3748" data-name="Path 3748" d="M96,48.89A30.22,30.22,0,0,1,110.871,62" transform="translate(-63.297 -48.89)" fill="none" stroke="#000" stroke-miterlimit="10" stroke-width="2"/>
        <ellipse id="Ellipse_125" data-name="Ellipse 125" cx="32.703" cy="32.703" rx="32.703" ry="32.703" fill="none" stroke="#231f20" stroke-miterlimit="10" stroke-width="2"/>
      </g>
    </g>
  </g>
</svg>
