<svg xmlns="http://www.w3.org/2000/svg" width="86.958" height="67" viewBox="0 0 86.958 67">
  <g id="Group_183" data-name="Group 183" transform="translate(0)">
    <path id="Path_428" data-name="Path 428" d="M1.506-4.257H24.391c.832,0,1.768.5,1.768,1.058L26.14,11.463c0,.559-1.036-1.1-1.868-1.1L1.506,10.111C.674,10.111,0,9.658,0,9.1V-4.546C0-5.1.674-4.257,1.506-4.257Z" transform="translate(13.099 23.879)" fill="#93c7e7"/>
    <path id="Path_429" data-name="Path 429" d="M24.654-4.249H1.768C.937-4.249,0-3.74,0-3.171L.019,11.764c0,.569,1.036-1.124,1.868-1.124l22.767-.253c.832,0,1.506-.461,1.506-1.031v-13.9C26.159-5.112,25.485-4.249,24.654-4.249Z" transform="translate(47.879 30.673)" fill="#93c7e7"/>
    <g id="Outline" transform="translate(0 0)">
      <g id="Group_181" data-name="Group 181" transform="translate(0 0)">
        <path id="Path_414" data-name="Path 414" d="M87.508,18.246A1.449,1.449,0,0,0,86.059,19.7V71.87h-7.87a123.284,123.284,0,0,0-27.7,3.154,2.887,2.887,0,0,1-3.055-1.206,32.945,32.945,0,0,1,17.19-4.846H81.711a1.449,1.449,0,0,0,1.449-1.449V57.377a1.449,1.449,0,1,0-2.9,0v8.7H64.626a35.838,35.838,0,0,0-17.7,4.655V31.29a1.449,1.449,0,1,0-2.9,0V70.727a35.832,35.832,0,0,0-17.7-4.654H10.7V13.9H33.015A11.022,11.022,0,0,1,44.03,24.92a1.449,1.449,0,1,0,2.9,0A11.022,11.022,0,0,1,57.943,13.9H80.262V51.58a1.449,1.449,0,1,0,2.9,0V12.449A1.449,1.449,0,0,0,81.711,11H57.943a13.932,13.932,0,0,0-12.464,7.728A13.932,13.932,0,0,0,33.015,11H9.246A1.449,1.449,0,0,0,7.8,12.449V67.523a1.449,1.449,0,0,0,1.449,1.449H26.332a32.939,32.939,0,0,1,17.187,4.843,2.9,2.9,0,0,1-3.037,1.212A123.291,123.291,0,0,0,12.768,71.87H4.9V19.7a1.449,1.449,0,1,0-2.9,0V73.32a1.449,1.449,0,0,0,1.449,1.449h9.319a120.421,120.421,0,0,1,27.04,3.078,5.768,5.768,0,0,0,5.671-1.833,5.765,5.765,0,0,0,5.652,1.838,120.5,120.5,0,0,1,27.058-3.083h9.319a1.449,1.449,0,0,0,1.449-1.449V19.7A1.449,1.449,0,0,0,87.508,18.246Z" transform="translate(-2 -11)"/>
        <path id="Path_415" data-name="Path 415" d="M36.69,20.338A13.885,13.885,0,0,0,28.974,18H12.45a1.45,1.45,0,0,0,0,2.9H28.974a10.982,10.982,0,0,1,6.114,1.851A1.45,1.45,0,1,0,36.7,20.338Z" transform="translate(2.046 -7.855)"/>
        <path id="Path_416" data-name="Path 416" d="M59.72,18H43.2a13.888,13.888,0,0,0-7.723,2.338,1.45,1.45,0,1,0,1.609,2.412A10.989,10.989,0,0,1,43.2,20.9H59.72a1.45,1.45,0,0,0,0-2.9Z" transform="translate(12.746 -7.855)"/>
        <path id="Path_417" data-name="Path 417" d="M36.69,25.338A13.885,13.885,0,0,0,28.974,23H12.45a1.45,1.45,0,1,0,0,2.9H28.974a10.982,10.982,0,0,1,6.114,1.851A1.45,1.45,0,1,0,36.7,25.338Z" transform="translate(2.046 -5.609)"/>
        <path id="Path_418" data-name="Path 418" d="M59.72,23H43.2a13.888,13.888,0,0,0-7.723,2.338,1.45,1.45,0,1,0,1.609,2.412A10.989,10.989,0,0,1,43.2,25.9H59.72a1.45,1.45,0,0,0,0-2.9Z" transform="translate(12.746 -5.609)"/>
        <path id="Path_419" data-name="Path 419" d="M36.69,30.338A13.885,13.885,0,0,0,28.974,28H12.45a1.45,1.45,0,1,0,0,2.9H28.974a10.982,10.982,0,0,1,6.114,1.851A1.45,1.45,0,1,0,36.7,30.338Z" transform="translate(2.046 -3.362)"/>
        <path id="Path_420" data-name="Path 420" d="M59.72,28H43.2a13.888,13.888,0,0,0-7.723,2.338,1.45,1.45,0,1,0,1.609,2.412A10.989,10.989,0,0,1,43.2,30.9H59.72a1.45,1.45,0,1,0,0-2.9Z" transform="translate(12.746 -3.362)"/>
        <path id="Path_421" data-name="Path 421" d="M36.69,35.338A13.885,13.885,0,0,0,28.974,33H12.45a1.45,1.45,0,1,0,0,2.9H28.974a10.982,10.982,0,0,1,6.114,1.851A1.45,1.45,0,0,0,36.7,35.338Z" transform="translate(2.046 -1.116)"/>
        <path id="Path_422" data-name="Path 422" d="M59.72,33H43.2a13.888,13.888,0,0,0-7.723,2.338,1.45,1.45,0,1,0,1.609,2.412A10.989,10.989,0,0,1,43.2,35.9H59.72a1.45,1.45,0,1,0,0-2.9Z" transform="translate(12.746 -1.116)"/>
        <path id="Path_423" data-name="Path 423" d="M36.69,40.338A13.885,13.885,0,0,0,28.974,38H12.45a1.45,1.45,0,0,0,0,2.9H28.974a10.982,10.982,0,0,1,6.114,1.851A1.45,1.45,0,1,0,36.7,40.338Z" transform="translate(2.046 1.13)"/>
        <path id="Path_424" data-name="Path 424" d="M59.72,38H43.2a13.888,13.888,0,0,0-7.723,2.338,1.45,1.45,0,0,0,1.609,2.412A10.989,10.989,0,0,1,43.2,40.9H59.72a1.45,1.45,0,1,0,0-2.9Z" transform="translate(12.746 1.13)"/>
        <path id="Path_425" data-name="Path 425" d="M28.974,43H12.45a1.45,1.45,0,1,0,0,2.9H28.974a10.982,10.982,0,0,1,6.114,1.851A1.45,1.45,0,1,0,36.7,45.338,13.885,13.885,0,0,0,28.974,43Z" transform="translate(2.046 3.377)"/>
        <path id="Path_426" data-name="Path 426" d="M59.72,43H43.2a13.888,13.888,0,0,0-7.723,2.338,1.45,1.45,0,0,0,1.609,2.412A10.989,10.989,0,0,1,43.2,45.9H59.72a1.45,1.45,0,1,0,0-2.9Z" transform="translate(12.746 3.377)"/>
      </g>
    </g>
  </g>
</svg>
