<svg xmlns="http://www.w3.org/2000/svg" xmlns:xlink="http://www.w3.org/1999/xlink" width="67.093" height="67.495" viewBox="0 0 67.093 67.495">
  <defs>
    <linearGradient id="linear-gradient" x1="1" y1="0.5" x2="0" y2="0.5" gradientUnits="objectBoundingBox">
      <stop offset="0" stop-color="#a5d9e7"/>
      <stop offset="1" stop-color="#8dc8e8"/>
    </linearGradient>
  </defs>
  <g id="Group_1413" data-name="Group 1413" transform="translate(1739.047 23538.232)">
    <rect id="Rectangle_2153" data-name="Rectangle 2153" width="67" height="67" transform="translate(-1739 -23538)" fill="rgba(255,255,255,0)"/>
    <g id="Servant_s_Heart" data-name="Servant&apos;s Heart" transform="translate(-1738.047 -23537.232)">
      <g id="Icon_Components" data-name="Icon Components" transform="translate(0 0)">
        <line id="Line_89" data-name="Line 89" x1="20.064" transform="translate(45.029 33.247)" fill="none" stroke="#000" stroke-linecap="round" stroke-linejoin="round" stroke-width="2"/>
        <line id="Line_90" data-name="Line 90" y1="19.786" transform="translate(32.311)" fill="none" stroke="#000" stroke-linecap="round" stroke-linejoin="round" stroke-width="2"/>
        <line id="Line_91" data-name="Line 91" y1="19.814" transform="translate(32.352 45.681)" fill="none" stroke="#000" stroke-linecap="round" stroke-linejoin="round" stroke-width="2"/>
        <line id="Line_92" data-name="Line 92" x1="19.814" transform="translate(0 33.247)" fill="none" stroke="#000" stroke-linecap="round" stroke-linejoin="round" stroke-width="2"/>
        <rect id="Rectangle_2149" data-name="Rectangle 2149" width="19.64" height="19.64" transform="translate(22.494 22.667)" fill="url(#linear-gradient)"/>
        <path id="Path_3749" data-name="Path 3749" d="M99.187,88.009a3.575,3.575,0,0,0-5.054,0L92.744,89.4l-1.389-1.388A3.575,3.575,0,0,0,86.3,93.063l6.436,6.422h0l6.45-6.45a3.575,3.575,0,0,0,0-5.026Z" transform="translate(-60.19 -60.489)" fill="none" stroke="#000" stroke-linecap="round" stroke-linejoin="round" stroke-width="2"/>
        <path id="Path_3750" data-name="Path 3750" d="M72,83.108V72H83.108" transform="translate(-56.115 -55.914)" fill="none" stroke="#000" stroke-linecap="round" stroke-linejoin="round" stroke-width="2"/>
        <path id="Path_3751" data-name="Path 3751" d="M83.108,115.108H72V104" transform="translate(-56.115 -65.698)" fill="none" stroke="#000" stroke-linecap="round" stroke-linejoin="round" stroke-width="2"/>
        <path id="Path_3752" data-name="Path 3752" d="M104,115.108h11.108V104" transform="translate(-65.899 -65.698)" fill="none" stroke="#000" stroke-linecap="round" stroke-linejoin="round" stroke-width="2"/>
        <path id="Path_3753" data-name="Path 3753" d="M115.108,83.108V72H104" transform="translate(-65.899 -55.914)" fill="none" stroke="#000" stroke-linecap="round" stroke-linejoin="round" stroke-width="2"/>
      </g>
    </g>
  </g>
</svg>
