<svg xmlns="http://www.w3.org/2000/svg" width="67.209" height="67" viewBox="0 0 67.209 67"><g transform="translate(-4178 196)"><rect width="20" height="6" transform="translate(4188 -171)" fill="#fff"/><rect width="20" height="6" transform="translate(4188 -158)" fill="#fff"/><g transform="translate(4178 -196)"><g transform="translate(0 0)"><path d="M66.211,51.367H59.634V43.211a1,1,0,0,0-2,0V65.8H40.507V36.146H57.638v2.407a1,1,0,1,0,2,0v-3.4a1,1,0,0,0-1-1H45V1.794a1,1,0,0,0-1-1H23.24a1,1,0,0,0-1,1V16.726H9.33a1,1,0,0,0-1,1V42.265H1a1,1,0,0,0-1,1V66.8a1,1,0,0,0,1,1H66.211a1,1,0,0,0,1-1V52.365A1,1,0,0,0,66.211,51.367ZM8.332,65.8H2V44.262H8.332Zm20.76,0H10.328V60.28H29.092Zm0-14.236h-9a1,1,0,1,0,0,2h9v4.724H10.328V53.56h5.11a1,1,0,1,0,0-2h-5.11V46.839H29.092Zm0-6.72H10.328V40.118H29.092Zm0-6.721H10.328V33.4H29.092Zm0-6.721H10.328V26.677H29.092Zm0-6.721H10.328V18.722H29.092Zm9.419,10.467V65.8H31.088V17.724a1,1,0,0,0-1-1H28.729v-2a1,1,0,1,0-2,0v2h-2.5V2.792H43V34.15H39.509A1,1,0,0,0,38.511,35.148ZM65.213,65.8H59.634V53.363h5.578Z" transform="translate(0 -0.796)"/></g><g transform="translate(38.511 21.626)"><path d="M294.375,165.543a1,1,0,0,0-1,1v2.994a1,1,0,1,0,2,0v-2.994A1,1,0,0,0,294.375,165.543Z" transform="translate(-293.377 -165.543)"/></g><g transform="translate(32.622 21.626)"><path d="M249.514,165.543a1,1,0,0,0-1,1v2.994a1,1,0,0,0,2,0v-2.994A1,1,0,0,0,249.514,165.543Z" transform="translate(-248.516 -165.543)"/></g><g transform="translate(38.511 12.936)"><path d="M294.375,99.34a1,1,0,0,0-1,1v2.994a1,1,0,1,0,2,0v-2.994A1,1,0,0,0,294.375,99.34Z" transform="translate(-293.377 -99.34)"/></g><g transform="translate(32.622 12.936)"><path d="M249.514,99.34a1,1,0,0,0-1,1v2.994a1,1,0,1,0,2,0v-2.994A1,1,0,0,0,249.514,99.34Z" transform="translate(-248.516 -99.34)"/></g><g transform="translate(26.733 4.245)"><path d="M204.652,33.137a1,1,0,0,0-1,1V37.13a1,1,0,0,0,2,0V34.135A1,1,0,0,0,204.652,33.137Z" transform="translate(-203.654 -33.137)"/></g><g transform="translate(38.511 4.245)"><path d="M294.375,33.137a1,1,0,0,0-1,1V37.13a1,1,0,1,0,2,0V34.135A1,1,0,0,0,294.375,33.137Z" transform="translate(-293.377 -33.137)"/></g><g transform="translate(32.622 4.245)"><path d="M249.514,33.137a1,1,0,0,0-1,1V37.13a1,1,0,0,0,2,0V34.135A1,1,0,0,0,249.514,33.137Z" transform="translate(-248.516 -33.137)"/></g><g transform="translate(38.512 30.364)"><path d="M293.852,232.26a1,1,0,1,0,1.481,1.156A1,1,0,0,0,293.852,232.26Z" transform="translate(-293.389 -232.109)"/></g><g transform="translate(32.622 30.359)"><path d="M249.514,232.075a1,1,0,0,0-1,1v2.994a1,1,0,1,0,2,0v-2.994A1,1,0,0,0,249.514,232.075Z" transform="translate(-248.516 -232.075)"/></g><g transform="translate(32.622 56.56)"><path d="M249.514,431.671a1,1,0,0,0-1,1v2.994a1,1,0,0,0,2,0v-2.994A1,1,0,0,0,249.514,431.671Z" transform="translate(-248.516 -431.671)"/></g><g transform="translate(32.622 47.826)"><path d="M249.514,365.139a1,1,0,0,0-1,1v2.994a1,1,0,0,0,2,0v-2.994A1,1,0,0,0,249.514,365.139Z" transform="translate(-248.516 -365.139)"/></g><g transform="translate(32.622 39.093)"><path d="M249.514,298.608a1,1,0,0,0-1,1V302.6a1,1,0,0,0,2,0v-2.994A1,1,0,0,0,249.514,298.608Z" transform="translate(-248.516 -298.608)"/></g><g transform="translate(42.553 56.256)"><path d="M336.211,429.355H325.168a1,1,0,0,0,0,2h11.043a1,1,0,0,0,0-2Z" transform="translate(-324.17 -429.355)"/></g><g transform="translate(42.553 60.974)"><path d="M336.211,465.3H325.168a1,1,0,0,0,0,2h11.043a1,1,0,0,0,0-2Z" transform="translate(-324.17 -465.299)"/></g><g transform="translate(42.553 51.538)"><path d="M336.211,393.413H325.168a1,1,0,0,0,0,2h11.043a1,1,0,0,0,0-2Z" transform="translate(-324.17 -393.413)"/></g><g transform="translate(42.553 37.383)"><path d="M336.211,285.583H325.168a1,1,0,0,0,0,2h11.043a1,1,0,0,0,0-2Z" transform="translate(-324.17 -285.583)"/></g><g transform="translate(42.553 46.82)"><path d="M336.211,357.469H325.168a1,1,0,0,0,0,2h11.043a1,1,0,0,0,0-2Z" transform="translate(-324.17 -357.469)"/></g><g transform="translate(42.553 42.102)"><path d="M336.211,321.527H325.168a1,1,0,0,0,0,2h11.043a1,1,0,0,0,0-2Z" transform="translate(-324.17 -321.527)"/></g><g transform="translate(4.166 45.052)"><path d="M32.733,344a1,1,0,0,0-1,1v2.6a1,1,0,0,0,2,0V345A1,1,0,0,0,32.733,344Z" transform="translate(-31.735 -344.004)"/></g><g transform="translate(4.166 51.939)"><path d="M32.733,396.469a1,1,0,0,0-1,1v2.6a1,1,0,0,0,2,0v-2.6A1,1,0,0,0,32.733,396.469Z" transform="translate(-31.735 -396.469)"/></g><g transform="translate(4.166 58.826)"><path d="M32.733,448.934a1,1,0,0,0-1,1v2.6a1,1,0,0,0,2,0v-2.6A1,1,0,0,0,32.733,448.934Z" transform="translate(-31.735 -448.934)"/></g><g transform="translate(61.425 54.962)"><path d="M468.938,419.5a1,1,0,0,0-1,1v2.825a1,1,0,0,0,2,0V420.5A1,1,0,0,0,468.938,419.5Z" transform="translate(-467.94 -419.501)"/></g><g transform="translate(46.322 19.23)"><path d="M366.059,147.293H353.882a1,1,0,0,0,0,2h12.177a1,1,0,0,0,0-2Z" transform="translate(-352.884 -147.293)"/></g><g transform="translate(53.508 23.422)"><path d="M417.41,179.228h-8.783a1,1,0,1,0,0,2h8.783a1,1,0,1,0,0-2Z" transform="translate(-407.629 -179.228)"/></g><g transform="translate(8.194 7.453)"><path d="M72.207,57.571H63.423a1,1,0,0,0,0,2h8.783a1,1,0,0,0,0-2Z" transform="translate(-62.425 -57.571)"/></g><g transform="translate(3.204 10.78)"><path d="M34.189,82.916H25.406a1,1,0,1,0,0,2H34.19a1,1,0,1,0,0-2Z" transform="translate(-24.408 -82.916)"/></g></g></g></svg>