<svg xmlns="http://www.w3.org/2000/svg" width="70.812" height="45.313" viewBox="0 0 70.812 45.313"><g transform="translate(-4377 185.156)"><path d="M4.719,1.536C6.266,3.567,12,2.686,12,6A6,6,0,0,1,0,6C0,2.686,3.173-.494,4.719,1.536Z" transform="translate(4382 -170)" fill="#fff"/><g transform="translate(4377 -185.156)"><g transform="translate(19.956 0)"><path d="M171.942,117.711l-6.028-2.679a1.181,1.181,0,0,1-.7-1.078V112.3a8.784,8.784,0,0,0,3.326-6.882v-2.33a2.15,2.15,0,0,0,1.109-1.879v-.226a8.808,8.808,0,0,0-8.8-8.8h-2.217a8.808,8.808,0,0,0-8.8,8.8v2.052a2.175,2.175,0,0,0,.828,1.743,2.024,2.024,0,0,0,.281.182v.458a8.784,8.784,0,0,0,3.326,6.882v1.655a1.181,1.181,0,0,1-.7,1.078l-6.028,2.679a5.477,5.477,0,0,0-3.25,5v13.748a1.037,1.037,0,1,0,2.075,0V122.711a3.391,3.391,0,0,1,.021-.357l2.777,2.777a2.274,2.274,0,0,1,.67,1.618v9.709a1.037,1.037,0,1,0,2.075,0V126.75a4.335,4.335,0,0,0-1.278-3.085l-3.311-3.311a3.388,3.388,0,0,1,1.063-.747l5.926-2.634,4.395,4.395v15.092a1.037,1.037,0,1,0,2.075,0V121.368l4.395-4.395,5.926,2.634a3.387,3.387,0,0,1,1.063.747l-3.311,3.311a4.334,4.334,0,0,0-1.278,3.085v9.709a1.037,1.037,0,0,0,2.075,0V126.75a2.274,2.274,0,0,1,.67-1.618l2.777-2.777a3.386,3.386,0,0,1,.021.357v13.748a1.037,1.037,0,0,0,2.075,0V122.711A5.478,5.478,0,0,0,171.942,117.711Zm-12.2,1.76-3.856-3.856a3.249,3.249,0,0,0,.459-1.661v-.422a8.791,8.791,0,0,0,6.795,0v.422a3.248,3.248,0,0,0,.459,1.661Zm0-7.331a6.731,6.731,0,0,1-6.723-6.723v-.467a6.133,6.133,0,0,0,1.884-1.223A1.037,1.037,0,0,0,153.5,102.2a3.725,3.725,0,0,1-1.54.92l-.028.005a.211.211,0,0,1-.018-.094v-2.052a6.731,6.731,0,0,1,6.723-6.723h2.217a6.731,6.731,0,0,1,6.723,6.723v.226a.067.067,0,0,1-.047.068c-6.211,1.227-9.327-1.085-10.378-2.136a1.037,1.037,0,0,0-1.467,1.467c3.221,3.221,7.921,3.279,10.783,2.935v1.874A6.731,6.731,0,0,1,159.742,112.14Z" transform="translate(-144.292 -92.184)"/></g><g transform="translate(0 5.543)"><path d="M18.7,146.607v-2.218a7.688,7.688,0,0,0-3.525-6.459,4.363,4.363,0,1,0-8.328,0,7.687,7.687,0,0,0-3.525,6.459v2.217a7.685,7.685,0,0,0,3.326,6.326v2.281A1.174,1.174,0,0,1,6,156.269l-3.588,1.794A4.34,4.34,0,0,0,0,161.966V171a1.037,1.037,0,0,0,2.075,0v-8.582l1.69,1.69a2.274,2.274,0,0,1,.67,1.618V171a1.037,1.037,0,0,0,2.075,0v-5.274a4.335,4.335,0,0,0-1.278-3.085l-2.352-2.352c-.011-.011-.024-.021-.035-.032a2.313,2.313,0,0,1,.5-.335l3.588-1.794a3.305,3.305,0,0,0,.514-.321l2.536,2.536V171a1.037,1.037,0,0,0,2.075,0V160.34l2.536-2.536a3.291,3.291,0,0,0,.514.321l.989.495a1.037,1.037,0,1,0,.928-1.855l-.989-.495a1.174,1.174,0,0,1-.652-1.055v-2.281A7.685,7.685,0,0,0,18.7,146.607ZM11.015,134.34a2.291,2.291,0,0,1,2.289,2.289,2.324,2.324,0,0,1-.036.409,7.689,7.689,0,0,0-4.5,0,2.275,2.275,0,0,1,2.249-2.7Zm0,4.435a5.621,5.621,0,0,1,5.615,5.615v.376a6.512,6.512,0,0,1-7-2.107,1.037,1.037,0,0,0-1.563-.111,6.786,6.786,0,0,1-2.66,1.7A5.62,5.62,0,0,1,11.015,138.774Zm0,19.669-2.4-2.4a3.285,3.285,0,0,0,.108-.832v-1.266a7.7,7.7,0,0,0,4.577,0v1.266a3.284,3.284,0,0,0,.108.832Zm0-6.222A5.621,5.621,0,0,1,5.4,146.606v-.215a8.317,8.317,0,0,0,3.333-1.661,9.359,9.359,0,0,0,1.924,1.4,8.251,8.251,0,0,0,3.964,1.023,8.691,8.691,0,0,0,2-.239A5.622,5.622,0,0,1,11.015,152.221Z" transform="translate(0 -132.265)"/></g><g transform="translate(49.89 7.761)"><path d="M379.236,169.661l-5.805-2.9a1.174,1.174,0,0,1-.652-1.055v-1.47a6.565,6.565,0,0,0,2.217-4.92v-1.181h.071A1.037,1.037,0,0,0,376.1,157.1v-2.217a6.588,6.588,0,0,0-6.581-6.581h-2.217a6.588,6.588,0,0,0-6.581,6.581V157.1a1.037,1.037,0,0,0,1.037,1.037l.071,0v1.182a6.565,6.565,0,0,0,2.217,4.92v1.47a1.173,1.173,0,0,1-.652,1.055,1.037,1.037,0,1,0,.928,1.856,3.3,3.3,0,0,0,.514-.321l2.536,2.536v13.983a1.037,1.037,0,1,0,2.075,0V170.829l2.536-2.536a3.29,3.29,0,0,0,.514.321l5.617,2.809-1.7,1.7a4.335,4.335,0,0,0-1.278,3.085v8.6a1.037,1.037,0,1,0,2.075,0v-8.6a2.274,2.274,0,0,1,.67-1.618l1.614-1.614a2.312,2.312,0,0,1,.076.584v11.248a1.037,1.037,0,0,0,2.075,0V173.564A4.339,4.339,0,0,0,379.236,169.661ZM362.8,155.845v-.967h0a4.511,4.511,0,0,1,4.506-4.506h2.217a4.511,4.511,0,0,1,4.506,4.506v1.152a15.864,15.864,0,0,1-7.257-2.015,1.037,1.037,0,0,0-1.309.13A6.793,6.793,0,0,1,362.8,155.845Zm5.615,13.088-2.4-2.4a3.285,3.285,0,0,0,.108-.832v-.221a6.575,6.575,0,0,0,4.577,0v.221a3.278,3.278,0,0,0,.108.832Zm0-5.114a4.511,4.511,0,0,1-4.506-4.506v-1.672h0a8.778,8.778,0,0,0,2.434-1.486,18.428,18.428,0,0,0,6.578,1.87v1.288A4.511,4.511,0,0,1,368.415,163.819Z" transform="translate(-360.726 -148.298)"/></g></g></g></svg>