<svg xmlns="http://www.w3.org/2000/svg" width="70.547" height="68.009" viewBox="0 0 70.547 68.009">
  <g id="Group_185" data-name="Group 185" transform="translate(0.5 0.509)">
    <path id="Path_427" data-name="Path 427" d="M4092.344-845.667c3.442-2.031,19.636-11.367,21.78,10.1l-.912,4.258-20.868,23.405L4071.8-830.616l-1.2-7.935,3.018-7.117,3.456-2.685,7.511-1.379,4.642,2.988,3.115,1.075" transform="translate(-4057.571 850.825)" fill="#93c7e7"/>
    <g id="peace" transform="translate(0 0)">
      <path id="Path_402" data-name="Path 402" d="M35.227,195.174v-3.742a11.914,11.914,0,0,0-1.205-5.224,1.129,1.129,0,0,0-2.03.989,9.658,9.658,0,0,1,.977,4.235v2.72c-.1-.008-16.41-.013-16.41-.013l-3.378-2.1A23.1,23.1,0,0,1,2.258,172.411V161.054a1.952,1.952,0,0,1,3.9,0v11.77a5.634,5.634,0,0,0,1.666,3.985l.342.337a4.342,4.342,0,0,0,1.359,2.5l9.4,8.609a1.129,1.129,0,0,0,1.526-1.665l-9.4-8.609a2.1,2.1,0,0,1,2.705-3.2l7.45,5.812a1.131,1.131,0,0,0,.364.189l4.552,1.394a9.637,9.637,0,0,1,3.145,1.645,1.129,1.129,0,1,0,1.4-1.775,11.886,11.886,0,0,0-3.88-2.029l-3.8-1.163v-6.087a5.688,5.688,0,0,0-4.549-5.565v-.809a3.633,3.633,0,0,0-5.01-3.363v-.2a3.632,3.632,0,0,0-5.273-3.242A4.21,4.21,0,0,0,0,161.054v11.357a25.362,25.362,0,0,0,11.99,21.55l1.665,1.033a3.667,3.667,0,0,0-1.32,2.818V206a1.129,1.129,0,0,0,2.258,0v-8.185a1.417,1.417,0,0,1,1.416-1.416H32.675a1.417,1.417,0,0,1,1.415,1.416V206a1.129,1.129,0,0,0,2.258,0v-8.185A3.662,3.662,0,0,0,35.227,195.174Zm-14.5-22.4v4.588l-2.291-1.787v-6.029A3.425,3.425,0,0,1,20.73,172.769Zm-5.925-7.75a1.377,1.377,0,0,1,1.376,1.376v7.413L15.148,173a4.361,4.361,0,0,0-1.718-.818v-5.79A1.377,1.377,0,0,1,14.805,165.019ZM9.8,161.457a1.377,1.377,0,0,1,1.376,1.376v9.442a4.345,4.345,0,0,0-2.024,1.345,4.419,4.419,0,0,0-.421.59,3.344,3.344,0,0,1-.307-1.385v-9.992A1.377,1.377,0,0,1,9.8,161.457Z" transform="translate(0 -140.126)" stroke="#000" stroke-width="1"/>
      <path id="Path_403" data-name="Path 403" d="M290.684,156.845a4.217,4.217,0,0,0-3.947,2.746,3.632,3.632,0,0,0-5.272,3.242v.2a3.633,3.633,0,0,0-5.01,3.363v.809a5.688,5.688,0,0,0-4.549,5.565v6.087l-3.8,1.163a11.936,11.936,0,0,0-8.441,11.413v3.742a3.663,3.663,0,0,0-1.121,2.639V206a1.129,1.129,0,0,0,2.258,0v-8.185a1.417,1.417,0,0,1,1.415-1.416h16.667a1.417,1.417,0,0,1,1.416,1.416V206a1.129,1.129,0,0,0,2.258,0v-8.185a3.667,3.667,0,0,0-1.32-2.818l1.665-1.033a25.336,25.336,0,0,0,5.639-4.765,1.129,1.129,0,1,0-1.693-1.495,23.081,23.081,0,0,1-5.137,4.341l-3.378,2.1s-16.313.005-16.41.013v-2.72a9.679,9.679,0,0,1,6.844-9.254l4.552-1.394a1.13,1.13,0,0,0,.364-.189l7.45-5.812a2.1,2.1,0,0,1,2.705,3.2l-9.4,8.609a1.129,1.129,0,0,0,1.526,1.665l9.4-8.609a4.343,4.343,0,0,0,1.359-2.5l.342-.337a5.634,5.634,0,0,0,1.666-3.985v-11.77a1.952,1.952,0,0,1,3.9,0v11.357a23.133,23.133,0,0,1-3.1,11.559,1.129,1.129,0,1,0,1.955,1.13,25.393,25.393,0,0,0,3.406-12.689V161.055A4.214,4.214,0,0,0,290.684,156.845Zm-14.229,12.7v6.029l-2.291,1.787V172.77A3.425,3.425,0,0,1,276.454,169.542ZM279.746,173l-1.033.806V166.4a1.376,1.376,0,1,1,2.751,0v5.79A4.359,4.359,0,0,0,279.746,173Zm3.977-.727v-9.442a1.376,1.376,0,0,1,2.751,0v9.995a3.344,3.344,0,0,1-.307,1.385,4.432,4.432,0,0,0-.421-.59A4.347,4.347,0,0,0,283.722,172.276Z" transform="translate(-225.346 -140.127)" stroke="#000" stroke-width="1"/>
      <path id="Path_404" data-name="Path 404" d="M122.545,33.183a14.954,14.954,0,0,0,3.632-9.42,15.2,15.2,0,0,0-3.009-9.7l-.045-.056a.925.925,0,0,0-1.412-.117,1.231,1.231,0,0,0-.1,1.593l.044.055a12.758,12.758,0,0,1,2.525,8.142,12.557,12.557,0,0,1-3.05,7.91L104.473,50.446a.979.979,0,0,1-1.5,0L86.316,31.59a12.557,12.557,0,0,1-3.05-7.91,12.759,12.759,0,0,1,2.525-8.142,10.157,10.157,0,0,1,6.785-4.048,9.6,9.6,0,0,1,7.414,2.246l2.668,2.226a1.617,1.617,0,0,0,2.124,0l2.668-2.226a9.578,9.578,0,0,1,11.078-.989.949.949,0,0,0,1.35-.482,1.2,1.2,0,0,0-.427-1.522,11.333,11.333,0,0,0-6.661-1.549,11.641,11.641,0,0,0-6.531,2.727l-2.539,2.118-2.539-2.118a11.437,11.437,0,0,0-8.829-2.674,12.1,12.1,0,0,0-8.081,4.821,15.194,15.194,0,0,0-3.007,9.7A14.954,14.954,0,0,0,84.9,33.183L101.549,52.04a2.826,2.826,0,0,0,4.343,0Z" transform="translate(-69.023 -9.156)" stroke="#000" stroke-width="1"/>
    </g>
  </g>
</svg>
