<svg xmlns="http://www.w3.org/2000/svg" width="67" height="67" viewBox="0 0 67 67">
  <g id="Group_184" data-name="Group 184" transform="translate(0)">
    <ellipse id="Ellipse_28" data-name="Ellipse 28" cx="4.216" cy="4.216" rx="4.216" ry="4.216" transform="translate(42.91 15.357)" fill="#93c7e7"/>
    <g id="startup" transform="translate(0 0)">
      <g id="Group_164" data-name="Group 164" transform="translate(32.92 31.459)">
        <g id="Group_163" data-name="Group 163">
          <path id="Path_405" data-name="Path 405" d="M253.825,240.8a1.311,1.311,0,1,0,0,1.853A1.311,1.311,0,0,0,253.825,240.8Z" transform="translate(-251.587 -240.418)"/>
        </g>
      </g>
      <g id="Group_166" data-name="Group 166" transform="translate(40.63 13.266)">
        <g id="Group_165" data-name="Group 165">
          <path id="Path_406" data-name="Path 406" d="M321.787,103.336a6.553,6.553,0,1,0,0,9.267A6.55,6.55,0,0,0,321.787,103.336Zm-1.853,7.414a3.932,3.932,0,1,1,0-5.56A3.937,3.937,0,0,1,319.933,110.75Z" transform="translate(-310.603 -101.415)"/>
        </g>
      </g>
      <g id="Group_168" data-name="Group 168" transform="translate(12.482 0)">
        <g id="Group_167" data-name="Group 167">
          <path id="Path_407" data-name="Path 407" d="M150.153.384A1.306,1.306,0,0,0,149.179,0,58.222,58.222,0,0,0,133.44,3.26a43.88,43.88,0,0,0-16.65,10.1c-.97.97-1.913,2-2.816,3.066-4.279-2.519-7.708-1.729-9.875-.569-4.991,2.671-8.08,9.923-8.08,15.111a1.311,1.311,0,0,0,2.238.927,8.343,8.343,0,0,1,6.939-2.328l.459.459a46.1,46.1,0,0,0-2.165,6.365,3.71,3.71,0,0,0,.159,2.277,12.411,12.411,0,0,0-3.539,2.5c-3.374,3.374-4.059,11.6-4.086,11.944a1.31,1.31,0,0,0,1.306,1.414q.052,0,.1,0c.348-.027,8.571-.712,11.944-4.086a12.412,12.412,0,0,0,2.495-3.538,3.7,3.7,0,0,0,2.278.158,46.1,46.1,0,0,0,6.365-2.164l.459.459a8.344,8.344,0,0,1-2.328,6.939,1.311,1.311,0,0,0,.927,2.237c5.187,0,12.44-3.089,15.111-8.08,1.16-2.167,1.95-5.6-.569-9.875,1.068-.9,2.1-1.846,3.066-2.816a43.883,43.883,0,0,0,10.1-16.65,58.221,58.221,0,0,0,3.259-15.739A1.311,1.311,0,0,0,150.153.384Zm-51.2,27.763c.814-3.94,3.179-8.264,6.387-9.981a6.983,6.983,0,0,1,6.979.329,52.991,52.991,0,0,0-5.506,8.976,1.382,1.382,0,0,0-.694-.407A11.2,11.2,0,0,0,98.948,28.147Zm8.574,20.428c-1.8,1.8-6.029,2.753-8.7,3.141.388-2.672,1.339-6.9,3.141-8.7a9.445,9.445,0,0,1,3.355-2.205l4.41,4.41A9.443,9.443,0,0,1,107.523,48.575Zm5.975-4.066a1.23,1.23,0,0,1-1.145-.372l-2.567-2.567L106.4,38.185a1.231,1.231,0,0,1-.373-1.145,42.555,42.555,0,0,1,1.636-5.006L118.5,42.872A42.527,42.527,0,0,1,113.5,44.508Zm18.873.693c-1.717,3.208-6.041,5.573-9.98,6.387a11.155,11.155,0,0,0,1.074-7.2,1.369,1.369,0,0,0-.4-.662,53.011,53.011,0,0,0,8.976-5.506A6.983,6.983,0,0,1,132.371,45.2Zm2.955-13.308a47.568,47.568,0,0,1-3.78,3.391A50.353,50.353,0,0,1,121.1,41.761L108.776,29.439a50.345,50.345,0,0,1,6.476-10.448,47.563,47.563,0,0,1,3.391-3.78,40.867,40.867,0,0,1,14.9-9.2L144.523,17A40.863,40.863,0,0,1,135.326,31.893Zm10.14-17.662-9.161-9.161a58.923,58.923,0,0,1,11.5-2.339A58.933,58.933,0,0,1,145.466,14.231Z" transform="translate(-96.018 0)"/>
        </g>
      </g>
      <g id="Group_170" data-name="Group 170" transform="translate(25.516 53.648)">
        <g id="Group_169" data-name="Group 169">
          <path id="Path_408" data-name="Path 408" d="M200.964,410.5a1.311,1.311,0,0,0-1.854,0l-3.706,3.708a1.311,1.311,0,0,0,1.854,1.853l3.706-3.708A1.311,1.311,0,0,0,200.964,410.5Z" transform="translate(-195.021 -410.121)"/>
        </g>
      </g>
      <g id="Group_172" data-name="Group 172" transform="translate(7.024 35.156)">
        <g id="Group_171" data-name="Group 171">
          <path id="Path_409" data-name="Path 409" d="M59.537,269.085a1.311,1.311,0,0,0-1.853,0l-3.708,3.706a1.311,1.311,0,1,0,1.853,1.854l3.708-3.706A1.311,1.311,0,0,0,59.537,269.085Z" transform="translate(-53.592 -268.701)"/>
        </g>
      </g>
      <g id="Group_174" data-name="Group 174" transform="translate(11.1 55.502)">
        <g id="Group_173" data-name="Group 173">
          <path id="Path_410" data-name="Path 410" d="M95.967,424.655a1.311,1.311,0,0,0-1.853,0l-8.878,8.877a1.311,1.311,0,1,0,1.853,1.854l8.878-8.877A1.31,1.31,0,0,0,95.967,424.655Z" transform="translate(-84.851 -424.271)"/>
        </g>
      </g>
      <g id="Group_176" data-name="Group 176" transform="translate(0.636 55.502)">
        <g id="Group_175" data-name="Group 175">
          <path id="Path_411" data-name="Path 411" d="M15.967,424.655a1.311,1.311,0,0,0-1.853,0l-8.878,8.877a1.311,1.311,0,1,0,1.853,1.854l8.878-8.877A1.31,1.31,0,0,0,15.967,424.655Z" transform="translate(-4.851 -424.271)"/>
        </g>
      </g>
      <g id="Group_178" data-name="Group 178" transform="translate(0 44.401)">
        <g id="Group_177" data-name="Group 177">
          <path id="Path_412" data-name="Path 412" d="M11.115,339.794a1.311,1.311,0,0,0-1.853,0L.385,348.672a1.311,1.311,0,1,0,1.854,1.853l8.877-8.878A1.311,1.311,0,0,0,11.115,339.794Z" transform="translate(-0.001 -339.41)"/>
        </g>
      </g>
      <g id="Group_180" data-name="Group 180" transform="translate(36.62 25.906)">
        <g id="Group_179" data-name="Group 179">
          <path id="Path_413" data-name="Path 413" d="M283.962,198.374a1.311,1.311,0,0,0-1.854,0l-1.853,1.853a1.311,1.311,0,1,0,1.854,1.854l1.853-1.853A1.311,1.311,0,0,0,283.962,198.374Z" transform="translate(-279.871 -197.99)"/>
        </g>
      </g>
    </g>
  </g>
</svg>
