<svg id="Group_200" data-name="Group 200" xmlns="http://www.w3.org/2000/svg" width="40" height="40" viewBox="0 0 40 40">
  <path id="Path_587" data-name="Path 587" d="M38.8,7.333a20.007,20.007,0,0,0-27.2,0Z" transform="translate(-5.2 -2)" fill="#ed4c5c"/>
  <path id="Path_588" data-name="Path 588" d="M11.6,54a20.007,20.007,0,0,0,27.2,0Z" transform="translate(-5.2 -19.333)" fill="#ed4c5c"/>
  <path id="Path_589" data-name="Path 589" d="M2,28a19.978,19.978,0,0,0,1.667,8H40.333a20.033,20.033,0,0,0,0-16H3.667A19.978,19.978,0,0,0,2,28Z" transform="translate(-2 -8)" fill="#2a5f9e"/>
  <path id="Path_590" data-name="Path 590" d="M9.2,50.667H36.333A19.643,19.643,0,0,0,41.067,44H4.4a21.849,21.849,0,0,0,4.8,6.667" transform="translate(-2.8 -16)" fill="#f9f9f9"/>
  <path id="Path_591" data-name="Path 591" d="M36.433,10H9.233A19.643,19.643,0,0,0,4.5,16.667H41.167A20.6,20.6,0,0,0,36.433,10Z" transform="translate(-2.833 -4.667)" fill="#f9f9f9"/>
</svg>
