<svg xmlns="http://www.w3.org/2000/svg" width="58.5" height="55.782" viewBox="0 0 58.5 55.782">
  <g id="_009-worldwide" data-name="009-worldwide" transform="translate(0 -11.894)">
    <path id="Path_71" data-name="Path 71" d="M58.379,19.135a1.143,1.143,0,0,0-1.533-.51l-1.214.608c.107-.358.173-.611.178-.632A5.365,5.365,0,0,0,54.6,13.174c-1.406-1.406-3.478-1.655-6.156-.739a29.971,29.971,0,0,0-7.473,4.242,27.2,27.2,0,0,0-8.836-3.228,27.584,27.584,0,0,0-8.321-.2,1.143,1.143,0,1,0,.291,2.267,25.24,25.24,0,0,1,6.688.032v.494a3.212,3.212,0,0,0,.936,2.26l2.353,2.353c.752.752-.275,1.472-.6,2.115C30.219,25.665,26.508,29.2,22.2,33.5q-2.49,2.49-4.642,4.723v-.795a3.1,3.1,0,0,0-.915-2.207L10.67,29.247a.827.827,0,0,1-.244-.59V21.879a25.13,25.13,0,0,1,4.667-3.38,1.143,1.143,0,0,0-1.118-1.993C5.99,20.986.021,29.951.021,39.279.007,39.645,0,40.005,0,40.352A27.152,27.152,0,0,0,3.89,54.422a24.652,24.652,0,0,0-2.755,5.319c-.916,2.679-.667,4.75.739,6.156,2.286,2.286,5.575,1.453,8.086.058a1.143,1.143,0,0,0-1.11-2c-1.565.869-3.866,1.818-5.361.324C2.276,63.069,2.918,60.355,5.28,56.5A27.7,27.7,0,0,0,8,59.673a27.146,27.146,0,0,0,19.321,8A27.323,27.323,0,0,0,43.044,18c5-3.5,8.509-4.643,9.938-3.213a3.172,3.172,0,0,1,.615,3.239c0,.008-.151.584-.364,1.2L52.1,17.566a1.143,1.143,0,1,0-1.891,1.283l2.3,3.39a1.156,1.156,0,0,0,1.457.38l3.9-1.951a1.143,1.143,0,0,0,.51-1.533Zm-16.311.977A25.059,25.059,0,0,1,52.092,44.054a.909.909,0,0,1-.45-.247l-2.735-2.734a3.175,3.175,0,0,0-2.259-.936H43.937a.911.911,0,0,1-.911-.909V36.4a3.217,3.217,0,0,0-.935-2.259l-6.4-6.4a.912.912,0,0,1-.266-.642v-2.9a.9.9,0,0,1,.008-.11c2.057-1.809,3.929-3.351,5.651-4.661Q41.585,19.763,42.068,20.113ZM35.7,19.042l-2.355-2.355a.912.912,0,0,1-.266-.642.3.3,0,0,1,0-.068,24.933,24.933,0,0,1,5.892,2.206q-1.214.946-2.523,2.038a3.181,3.181,0,0,0-.749-1.179Zm-17.3,25h6.033a.838.838,0,0,1,.837.837v7.783a.843.843,0,0,1-.245.592L15.9,62.381a.267.267,0,0,1-.455-.189V53.237a3.1,3.1,0,0,0-.913-2.208l-2.925-2.924c1.337-1.563,2.837-3.238,4.517-5.044a3.115,3.115,0,0,0,2.274.985Zm-3.368-7.206a.827.827,0,0,1,.244.59v3.194q-2.433,2.588-4.414,4.852V41.3A3.127,3.127,0,0,0,7.737,38.18H2.379A24.994,24.994,0,0,1,8.141,24.258v4.4a3.1,3.1,0,0,0,.915,2.207ZM2.286,40.465h5.45a.839.839,0,0,1,.839.837v5.708a3.135,3.135,0,0,0,.152.967C7.555,49.39,6.517,50.713,5.6,51.96c-.093.127-.182.251-.273.375A24.9,24.9,0,0,1,2.286,40.465ZM6.627,54.453q.389-.558.815-1.14,1.2-1.629,2.691-3.45l2.783,2.782a.83.83,0,0,1,.244.592v7.769a25.349,25.349,0,0,1-6.534-6.553Zm11.309,9.124,8.7-8.7a3.144,3.144,0,0,0,.915-2.208V44.884a3.126,3.126,0,0,0-3.122-3.122H18.4a.838.838,0,0,1-.7-.376c1.839-1.938,3.871-4.02,6.118-6.267,3.479-3.479,6.561-6.444,9.326-8.967v.95a3.212,3.212,0,0,0,.936,2.259l6.4,6.4a.916.916,0,0,1,.266.644v2.825a3.2,3.2,0,0,0,3.2,3.194h2.711a.917.917,0,0,1,.644.267l2.733,2.733a3.188,3.188,0,0,0,1.628.877A24.874,24.874,0,0,1,50.4,50.08a3.957,3.957,0,0,0-.579-.044H44.372A3.957,3.957,0,0,0,41.555,51.2l-1.584,1.584a4.021,4.021,0,0,0,0,5.632l2.141,2.141a25.1,25.1,0,0,1-24.175,3.019ZM49.043,52.822a25.536,25.536,0,0,1-3.885,5.1c-.4.412-.825.807-1.257,1.19L41.589,56.8a1.717,1.717,0,0,1,0-2.4l1.584-1.584a1.71,1.71,0,0,1,1.2-.5h4.952C49.231,52.488,49.139,52.656,49.043,52.822Z"/>
    <path id="Path_72" data-name="Path 72" d="M158.139,34.661a1.142,1.142,0,1,0,.618-1.492A1.153,1.153,0,0,0,158.139,34.661Z" transform="translate(-139.995 -18.769)"/>
  </g>
</svg>
