<svg xmlns="http://www.w3.org/2000/svg" width="63.143" height="53.274" viewBox="0 0 63.143 53.274">
  <g id="first" transform="translate(0 -40.011)">
    <g id="Group_68" data-name="Group 68" transform="translate(12.013 44.607)">
      <g id="Group_67" data-name="Group 67" transform="translate(0 0)">
        <path id="Path_136" data-name="Path 136" d="M135.58,85.169a12.774,12.774,0,0,1-7.673-7.028,1.4,1.4,0,0,0-1.288-.86H107.312a1.4,1.4,0,0,0-1.288.86,12.775,12.775,0,0,1-7.673,7.029,1.4,1.4,0,0,0-.944,1.32v5.046c0,.965.048,1.943.142,2.906a.93.93,0,0,0,.924.84c.03,0,.061,0,.092,0A.93.93,0,0,0,99.4,94.26c-.088-.9-.133-1.82-.133-2.725V86.817a14.637,14.637,0,0,0,8.351-7.676h18.7a14.638,14.638,0,0,0,8.351,7.676v4.718c0,.894-.044,1.8-.13,2.7a.93.93,0,1,0,1.851.179c.092-.953.139-1.92.139-2.874V86.489A1.4,1.4,0,0,0,135.58,85.169Z" transform="translate(-97.407 -77.281)" fill="rgba(29,13,1,0.98)"/>
      </g>
    </g>
    <g id="Group_70" data-name="Group 70" transform="translate(12.889 65.013)">
      <g id="Group_69" data-name="Group 69" transform="translate(0 0)">
        <path id="Path_137" data-name="Path 137" d="M141.17,242.784a.93.93,0,0,0-1.128.676,29.552,29.552,0,0,1-3.738,8.664,33.618,33.618,0,0,1-12.8,11.62l-.308.162-.308-.162a33.618,33.618,0,0,1-12.8-11.62,29.552,29.552,0,0,1-3.741-8.678.93.93,0,1,0-1.8.451,31.41,31.41,0,0,0,3.975,9.223,35.479,35.479,0,0,0,13.505,12.269l.524.276a1.394,1.394,0,0,0,1.3,0l.524-.276a35.481,35.481,0,0,0,13.506-12.269,31.413,31.413,0,0,0,3.972-9.208A.93.93,0,0,0,141.17,242.784Z" transform="translate(-104.513 -242.742)" fill="rgba(29,13,1,0.98)"/>
      </g>
    </g>
    <g id="Group_72" data-name="Group 72" transform="translate(22.111 50.479)">
      <g id="Group_71" data-name="Group 71">
        <path id="Path_138" data-name="Path 138" d="M195.113,145.518h-2.7V126.142a1.254,1.254,0,0,0-1.253-1.253h-3.772a1.255,1.255,0,0,0-.805.293l-6.853,5.751a1.248,1.248,0,0,0-.182,1.731l2.248,2.877a1.253,1.253,0,0,0,1.786.193l1.871-1.549v11.333H182.1a1.254,1.254,0,0,0-1.253,1.253v3.421a1.254,1.254,0,0,0,1.253,1.253h13.011a1.254,1.254,0,0,0,1.253-1.253v-3.421A1.254,1.254,0,0,0,195.113,145.518Zm-.607,4.067h-11.8v-2.207h3.354a1.254,1.254,0,0,0,1.253-1.253V132.895a1.253,1.253,0,0,0-2.052-.965l-2.384,1.974-1.5-1.922,6.235-5.232h2.944v19.377a1.254,1.254,0,0,0,1.253,1.253h2.7Z" transform="translate(-179.285 -124.889)" fill="rgba(29,13,1,0.98)"/>
      </g>
    </g>
    <g id="Group_74" data-name="Group 74" transform="translate(0 40.011)">
      <g id="Group_73" data-name="Group 73" transform="translate(0)">
        <path id="Path_139" data-name="Path 139" d="M63.137,72.166a1.109,1.109,0,0,0-.633-.889,78.221,78.221,0,0,0-8.011-3.261,34.746,34.746,0,0,0,1.233-9.154V50.084a1.428,1.428,0,0,0-1.368-1.427c-4.409-.2-7.912-3.335-8.148-7.295a1.435,1.435,0,0,0-1.427-1.351H18.36a1.434,1.434,0,0,0-1.427,1.351c-.236,3.96-3.74,7.1-8.148,7.295a1.428,1.428,0,0,0-1.368,1.427v8.777a34.747,34.747,0,0,0,1.233,9.154,78.19,78.19,0,0,0-8.01,3.261,1.117,1.117,0,0,0-.2,1.894q1.418,1.091,2.848,2.3l.236.2.349.3.225.194.382.333.189.165q.285.251.569.507-.269.875-.531,1.757c-.051.172-.1.344-.151.515-.107.364-.215.729-.32,1.092,0,.005,0,.011,0,.016-.375,1.3-.738,2.609-1.083,3.909a1.117,1.117,0,0,0,1.554,1.3A67.18,67.18,0,0,1,15.794,81.68,40.758,40.758,0,0,0,28.259,91.73l2.647,1.391a1.43,1.43,0,0,0,1.33,0l2.647-1.391A40.759,40.759,0,0,0,47.349,81.68a67.171,67.171,0,0,1,11.094,4.078A1.117,1.117,0,0,0,60,84.46c-.358-1.345-.734-2.7-1.123-4.045,0,0,0-.009,0-.013q-.177-.614-.357-1.222l-.093-.314c-.169-.568-.338-1.13-.508-1.684l0-.013.318-.283.234-.209.295-.258.277-.242.261-.224.322-.276.239-.2q1.392-1.174,2.855-2.306A1.109,1.109,0,0,0,63.137,72.166ZM3.854,73.523q-.662-.548-1.322-1.074c2.19-.994,4.421-1.883,6.654-2.653q.252.763.54,1.517c-.909.313-1.813.644-2.694.987C7.016,72.306,5.553,72.854,3.854,73.523Zm2.98,2.585q-.311-.282-.623-.559l-.182-.161-.464-.408-.1-.089c1.256-.488,2.211-.845,2.232-.853.9-.351,1.818-.686,2.739-1a36.5,36.5,0,0,0,2.09,4.028c-1.206.361-2.412.757-3.6,1.182l-.044.017c-.015.006-1.035.431-2.324.953.027-.09.053-.18.08-.269l.1-.329q.2-.678.413-1.353A1.119,1.119,0,0,0,6.834,76.108ZM5.355,83.415q.264-.963.541-1.927c1.752-.7,3.467-1.409,3.68-1.5,1.316-.471,2.655-.9,3.99-1.29q.476.707.985,1.393A68.9,68.9,0,0,0,5.355,83.415ZM48.4,77.108l0,.006A38.263,38.263,0,0,1,34.018,90.084L31.571,91.37l-2.447-1.286A38.266,38.266,0,0,1,14.748,77.115l-.006-.009c-.053-.082-.107-.164-.16-.247a33.57,33.57,0,0,1-5.306-18V50.489c5.025-.4,9-4.018,9.48-8.618h25.63c.48,4.6,4.455,8.215,9.48,8.618v8.372a33.57,33.57,0,0,1-5.306,18C48.508,76.942,48.453,77.025,48.4,77.108Zm7.593.158.007.022q.2.644.394,1.292l.118.392.051.17c-1.283-.483-2.308-.881-2.322-.887l-.023-.009c-1.187-.425-2.393-.821-3.6-1.182a36.471,36.471,0,0,0,2.09-4.028c.919.315,1.837.65,2.738,1l.03.011c.013,0,.959.336,2.249.8l-.116.1q-.243.212-.483.425l-.191.169q-.316.282-.627.564a1.109,1.109,0,0,0-.2.245,1.125,1.125,0,0,0-.162.6A1.108,1.108,0,0,0,55.993,77.266Zm-7.4,2.827q.509-.686.985-1.393c1.34.389,2.682.822,4,1.294.158.062,1.882.729,3.635,1.376q.292,1.022.575,2.045A68.891,68.891,0,0,0,48.593,80.092ZM59.36,73.464c-1.685-.615-3.094-1.11-3.255-1.166-.885-.344-1.786-.674-2.689-.985q.287-.754.54-1.517c2.234.77,4.465,1.659,6.656,2.654Q59.98,72.952,59.36,73.464Z" transform="translate(0 -40.011)" fill="rgba(29,13,1,0.98)"/>
      </g>
    </g>
  </g>
</svg>
