<svg id="support" xmlns="http://www.w3.org/2000/svg" width="58.716" height="53.335" viewBox="0 0 58.716 53.335">
  <g id="Group_61" data-name="Group 61" transform="translate(53.622 35.01)">
    <g id="Group_60" data-name="Group 60">
      <path id="Path_128" data-name="Path 128" d="M472.341,331.86l-2.8-2.776a1.147,1.147,0,1,0-1.616,1.629l2.8,2.776a1.147,1.147,0,0,0,1.616-1.629Z" transform="translate(-467.587 -328.751)" fill="rgba(29,13,1,0.98)"/>
    </g>
  </g>
  <g id="Group_63" data-name="Group 63" transform="translate(50.766 32.166)">
    <g id="Group_62" data-name="Group 62">
      <path id="Path_129" data-name="Path 129" d="M444.635,304.287a1.147,1.147,0,0,0-1.622,0l0,0a1.147,1.147,0,1,0,1.624,0Z" transform="translate(-442.675 -303.952)" fill="rgba(29,13,1,0.98)"/>
    </g>
  </g>
  <g id="Group_65" data-name="Group 65" transform="translate(0 0)">
    <g id="Group_64" data-name="Group 64">
      <path id="Path_130" data-name="Path 130" d="M42.946,61.253,54.073,50.126a4.319,4.319,0,0,0-2.085-7.266A4.324,4.324,0,0,0,48.8,36.779a4.315,4.315,0,0,0-3.366-5.61,4.324,4.324,0,0,0-6.169-5.156l-.111-.119a7.654,7.654,0,0,0-5.585-2.432H24.564a1.147,1.147,0,0,0-1.147,1.147v1.5a5.211,5.211,0,0,0,.3,1.739,4.323,4.323,0,0,0-5.761,5.35,4.322,4.322,0,0,0-3.371,5.611A4.322,4.322,0,0,0,11.4,44.891,4.323,4.323,0,0,0,9.313,52.16L11.6,54.448.335,65.713a1.147,1.147,0,1,0,1.622,1.622L13.332,55.961a4.32,4.32,0,0,0,6.452-3.933c.058,0,.116,0,.174,0a4.319,4.319,0,0,0,4.322-4.32c0-.058,0-.116,0-.174.057,0,.115,0,.172,0a4.319,4.319,0,0,0,4.322-4.32c0-.058,0-.116,0-.174.057,0,.115,0,.172,0a4.32,4.32,0,0,0,3.343-7.06L39.9,28.378a2.028,2.028,0,1,1,2.868,2.868l-1.123,1.123-4.073,4.073a1.147,1.147,0,1,0,1.622,1.622l4.073-4.073a2.028,2.028,0,1,1,2.868,2.868L45.01,37.982l-2.95,2.95a1.147,1.147,0,1,0,1.622,1.622l2.95-2.95A2.028,2.028,0,1,1,49.5,42.473l-1.541,1.541-1.41,1.41a1.147,1.147,0,1,0,1.622,1.622l1.411-1.411A2.028,2.028,0,0,1,52.45,48.5L41.323,59.631a15.538,15.538,0,0,1-10.456,4.555,1.147,1.147,0,0,0-.771.337L19.817,74.84a1.147,1.147,0,1,0,1.625,1.619L29,68.871a10.661,10.661,0,0,0,6.475,1.666l5.917,5.917a1.147,1.147,0,0,0,1.622-1.622L36.725,68.54a1.148,1.148,0,0,0-.9-.332l-.364.03A8.373,8.373,0,0,1,30.67,67.2l.737-.74A17.822,17.822,0,0,0,42.946,61.253ZM16.9,53.637a2.028,2.028,0,0,1-2.868,0l-3.1-3.1A2.028,2.028,0,1,1,13.8,47.67l3.1,3.1A2.031,2.031,0,0,1,16.9,53.637Zm4.491-4.491a2.031,2.031,0,0,1-2.869,0l-3.1-3.1-1.541-1.541a2.028,2.028,0,1,1,2.868-2.868l4.64,4.64h0a2.029,2.029,0,0,1,0,2.869Zm4.49-4.491a2.031,2.031,0,0,1-2.869,0l-5.763-5.763a2.028,2.028,0,0,1,2.868-2.869l2.627,2.627,3.137,3.137h0a2.029,2.029,0,0,1,0,2.868Zm4.491-4.491a2.031,2.031,0,0,1-2.868,0L21.742,34.4l0,0L20.62,33.28a2.028,2.028,0,0,1,2.868-2.869L30.374,37.3a2.029,2.029,0,0,1,0,2.869Zm.3-5.811-3.15-3.15a5.248,5.248,0,0,0,1.1.117h.025l3.148-.015a1.147,1.147,0,0,0-.005-2.294h-.006l-3.148.015h-.014a2.913,2.913,0,0,1-2.913-2.914v-.357h7.86a5.353,5.353,0,0,1,3.906,1.7l.047.05Z" transform="translate(0 -23.462)" fill="rgba(29,13,1,0.98)"/>
    </g>
  </g>
</svg>
