<svg xmlns="http://www.w3.org/2000/svg" width="67.581" height="67.333" viewBox="0 0 67.581 67.333">
  <g id="Group_101" data-name="Group 101" transform="translate(-625 -3682)">
    <rect id="Rectangle_130" data-name="Rectangle 130" width="25" height="19" transform="translate(625 3729)" fill="#93c7e7"/>
    <rect id="Rectangle_131" data-name="Rectangle 131" width="25" height="19" transform="translate(667 3729)" fill="#93c7e7"/>
    <g id="_008-organize" data-name="008-organize" transform="translate(625 3681.061)">
      <path id="Path_44" data-name="Path 44" d="M211.826,70.4a6.717,6.717,0,1,0,6.717,6.717A6.725,6.725,0,0,0,211.826,70.4Zm0,11.455a4.737,4.737,0,1,1,4.737-4.737A4.743,4.743,0,0,1,211.826,81.856Z" transform="translate(-178.036 -60.293)"/>
      <circle id="Ellipse_1" data-name="Ellipse 1" cx="1.411" cy="1.411" r="1.411" transform="translate(3.98 57.278) rotate(-10.894)"/>
      <path id="Path_45" data-name="Path 45" d="M64.888,430.7H76.6a.99.99,0,1,0,0-1.98H64.888a.99.99,0,1,0,0,1.98Z" transform="translate(-55.464 -371.321)"/>
      <circle id="Ellipse_2" data-name="Ellipse 2" cx="1.411" cy="1.411" r="1.411" transform="translate(3.891 61.941) rotate(-16.858)"/>
      <path id="Path_46" data-name="Path 46" d="M64.888,464.756H76.6a.99.99,0,1,0,0-1.98H64.888a.99.99,0,1,0,0,1.98Z" transform="translate(-55.464 -400.877)"/>
      <path id="Path_47" data-name="Path 47" d="M65.138,46.958H55.393V40.5a1.916,1.916,0,0,0-1.914-1.914H34.78V32.711h1.067a2.127,2.127,0,0,0,2.125-2.125V28.86a12.662,12.662,0,0,0,1.371-.569l1.221,1.221a2.125,2.125,0,0,0,3,0L46.478,26.6a2.125,2.125,0,0,0,0-3l-1.221-1.221a12.7,12.7,0,0,0,.569-1.371h1.725a2.127,2.127,0,0,0,2.125-2.125V14.768a2.127,2.127,0,0,0-2.125-2.125H45.826a12.646,12.646,0,0,0-.569-1.371l1.221-1.221a2.112,2.112,0,0,0,.622-1.5,2.136,2.136,0,0,0-.062-.51.99.99,0,1,0-1.922.474.161.161,0,0,1,0,.037.142.142,0,0,1-.042.1l-1.735,1.735a.99.99,0,0,0-.163,1.184,10.7,10.7,0,0,1,.967,2.331.99.99,0,0,0,.953.722h2.451a.145.145,0,0,1,.145.145v4.114a.145.145,0,0,1-.145.145H45.1a.99.99,0,0,0-.953.721,10.709,10.709,0,0,1-.967,2.331.99.99,0,0,0,.163,1.184L45.078,25a.145.145,0,0,1,0,.2l-2.909,2.909a.145.145,0,0,1-.2,0L40.23,26.378a.99.99,0,0,0-1.184-.163,10.71,10.71,0,0,1-2.331.967.99.99,0,0,0-.722.953v2.451a.145.145,0,0,1-.145.145H31.734a.145.145,0,0,1-.145-.145V28.134a.99.99,0,0,0-.722-.953,10.7,10.7,0,0,1-2.331-.967.99.99,0,0,0-1.184.163l-1.735,1.735a.145.145,0,0,1-.2,0L22.5,25.2a.145.145,0,0,1,0-.2l1.735-1.735a.99.99,0,0,0,.163-1.184,10.7,10.7,0,0,1-.967-2.331.99.99,0,0,0-.953-.721H20.03a.145.145,0,0,1-.145-.145V14.768a.145.145,0,0,1,.145-.145h2.451a.99.99,0,0,0,.953-.722A10.7,10.7,0,0,1,24.4,11.57a.99.99,0,0,0-.163-1.184L22.5,8.651a.145.145,0,0,1,0-.2l2.909-2.909a.145.145,0,0,1,.2,0l1.735,1.735a.99.99,0,0,0,1.184.163,10.71,10.71,0,0,1,2.331-.967.99.99,0,0,0,.722-.953V3.064a.145.145,0,0,1,.145-.145h4.114a.145.145,0,0,1,.145.145V5.515a.99.99,0,0,0,.722.953,10.7,10.7,0,0,1,2.331.967.99.99,0,0,0,1.184-.163l1.735-1.735a.145.145,0,0,1,.2,0l.077.077a.99.99,0,0,0,1.4-1.4l-.077-.077a2.125,2.125,0,0,0-3,0L39.343,5.358a12.689,12.689,0,0,0-1.371-.569V3.064A2.127,2.127,0,0,0,35.847.939H31.733a2.127,2.127,0,0,0-2.125,2.125V4.789a12.662,12.662,0,0,0-1.371.569L27.017,4.137a2.124,2.124,0,0,0-3,0L21.1,7.046a2.124,2.124,0,0,0,0,3.005l1.221,1.221a12.672,12.672,0,0,0-.569,1.371H20.029A2.127,2.127,0,0,0,17.9,14.768v4.114a2.127,2.127,0,0,0,2.125,2.125h1.725a12.676,12.676,0,0,0,.569,1.371L21.1,23.6a2.125,2.125,0,0,0,0,3.005l2.909,2.909a2.125,2.125,0,0,0,3,0l1.221-1.221a12.7,12.7,0,0,0,1.371.569v1.725a2.127,2.127,0,0,0,2.125,2.125H32.8v5.873H13.815A1.916,1.916,0,0,0,11.9,40.5v6.46H2.443A2.446,2.446,0,0,0,0,49.4V65.829a2.446,2.446,0,0,0,2.443,2.443H4.906a.99.99,0,0,0,0-1.98H2.443a.464.464,0,0,1-.464-.463V54.991h22.4V65.829a.464.464,0,0,1-.463.463H9.526a.99.99,0,0,0,0,1.98H23.913a2.446,2.446,0,0,0,2.443-2.443V49.4a2.446,2.446,0,0,0-2.443-2.443H13.881V40.564H53.413v6.394H43.668A2.446,2.446,0,0,0,41.224,49.4V65.829a2.446,2.446,0,0,0,2.443,2.443h21.47a2.446,2.446,0,0,0,2.443-2.443V49.4a2.446,2.446,0,0,0-2.443-2.443ZM24.377,49.4v3.609H1.98V49.4a.464.464,0,0,1,.464-.463h21.47a.464.464,0,0,1,.463.463Zm18.828,0a.464.464,0,0,1,.463-.463h21.47a.464.464,0,0,1,.464.463v3.609H43.2ZM65.6,65.829a.464.464,0,0,1-.464.463H43.668a.464.464,0,0,1-.463-.463V54.991H65.6Z" fill="rgba(29,13,1,0.98)"/>
      <circle id="Ellipse_3" data-name="Ellipse 3" cx="1.411" cy="1.411" r="1.411" transform="translate(45.111 57.438) rotate(-16.858)"/>
      <path id="Path_48" data-name="Path 48" d="M377.208,430.7h11.716a.99.99,0,1,0,0-1.98H377.208a.99.99,0,1,0,0,1.98Z" transform="translate(-326.559 -371.321)"/>
      <circle id="Ellipse_4" data-name="Ellipse 4" cx="1.411" cy="1.411" r="1.411" transform="translate(45.206 61.778) rotate(-10.894)"/>
      <path id="Path_49" data-name="Path 49" d="M377.208,464.756h11.716a.99.99,0,1,0,0-1.98H377.208a.99.99,0,1,0,0,1.98Z" transform="translate(-326.559 -400.877)"/>
    </g>
  </g>
</svg>
