<svg xmlns="http://www.w3.org/2000/svg" width="66.667" height="66.667" viewBox="0 0 66.667 66.667">
  <g id="Group_102" data-name="Group 102" transform="translate(-625 -3575)">
    <path id="Path_43" data-name="Path 43" d="M646.375,3634l-2.875-2.5-2.5-1.375h-2.625l-2.75-2.5s-3.875.5-4.375,1a17.181,17.181,0,0,1-3.25,1.5l-1.25,3v2.5l12.875.5,5.875-.5Z" transform="translate(0 -52)" fill="#93c7e7"/>
    <g id="_005-leadership" data-name="005-leadership" transform="translate(625 3575)">
      <g id="Group_39" data-name="Group 39" transform="translate(0 0.001)">
        <g id="Group_38" data-name="Group 38" transform="translate(0 0)">
          <path id="Path_41" data-name="Path 41" d="M16.669,2.225A6.46,6.46,0,0,0,15,2.447,8.881,8.881,0,0,0,0,8.892,1.11,1.11,0,0,0,1.113,10H22.224a1.11,1.11,0,0,0,1.111-1.111A6.673,6.673,0,0,0,16.669,2.225ZM2.316,7.782h0A6.66,6.66,0,0,1,13.859,4.457a1.111,1.111,0,0,0,1.226.3,4.426,4.426,0,0,1,5.889,3.027H2.316Z" transform="translate(-0.002 -0.003)"/>
        </g>
      </g>
      <g id="Group_41" data-name="Group 41" transform="translate(16.842 12.632)">
        <g id="Group_40" data-name="Group 40" transform="translate(0 0)">
          <rect id="Rectangle_127" data-name="Rectangle 127" width="1" height="2" transform="translate(0.158 0.368)"/>
        </g>
      </g>
      <g id="Group_43" data-name="Group 43" transform="translate(21.053 12.632)">
        <g id="Group_42" data-name="Group 42" transform="translate(0 0)">
          <rect id="Rectangle_128" data-name="Rectangle 128" width="2" height="2" transform="translate(-0.053 0.368)"/>
        </g>
      </g>
      <g id="Group_45" data-name="Group 45" transform="translate(25.263 12.632)">
        <g id="Group_44" data-name="Group 44" transform="translate(0 0)">
          <rect id="Rectangle_129" data-name="Rectangle 129" width="2" height="2" transform="translate(-0.263 0.368)"/>
        </g>
      </g>
      <g id="Group_47" data-name="Group 47" transform="translate(0 0)">
        <g id="Group_46" data-name="Group 46">
          <path id="Path_42" data-name="Path 42" d="M52.222,32.994a3.321,3.321,0,0,0-2.786-3.288l-3.678-.613.707-3.537h9.09v6.667h2.222V10.687l8.274-4.138a1.111,1.111,0,0,0,0-1.988L57.163.117a1.111,1.111,0,0,0-1.608.994V18.889H47.178a6.665,6.665,0,1,0-9.343.562l-9.572,8.509-6.214,3.107-3.187-.531a6.664,6.664,0,1,0-8.737.088.987.987,0,0,0-.05.088L6.63,39.667A5.517,5.517,0,0,0,7.1,44.6a5.652,5.652,0,0,0,.6.784L4.674,50.423.326,54.77a1.11,1.11,0,0,0,0,1.571l3.333,3.333a1.111,1.111,0,0,0,1.571,0l5.556-5.556a1.111,1.111,0,0,0,.139-.169l4.268-6.4,1.474.133v4.541H15.556a1.11,1.11,0,0,0-1.111,1.111v8L.861,64.473A1.111,1.111,0,0,0,0,65.556v1.111H2.222V66.44l13.583-3.134a1.111,1.111,0,0,0,.861-1.083V54.445H33.333a1.109,1.109,0,0,0,.826-.368l9.669-10.743H66.667V41.112H52.222ZM57.778,2.91l5.293,2.647L57.778,8.2Zm-20,11.536a4.444,4.444,0,1,1,4.444,4.444A4.449,4.449,0,0,1,37.778,14.445Zm-1.567,9.422-1.69,4.393-3.139,2.367-1.033-1.55ZM10,25.556A4.444,4.444,0,1,1,14.445,30,4.449,4.449,0,0,1,10,25.556Zm-.863,27.07L4.445,57.318,2.682,55.556,6.341,51.9a1.1,1.1,0,0,0,.167-.213l2.983-4.972a5.591,5.591,0,0,0,1.82.484l1.362.123Zm13.085-.4H18.889V46.667a1.111,1.111,0,0,0-1.01-1.107l-6.366-.579A3.332,3.332,0,0,1,8.7,40.466l3.17-8.243h3.589l6.577,1.1a1.117,1.117,0,0,0,.679-.1l5.789-2.894,1.018,1.527-6.488,3.708h-5.26A1.111,1.111,0,0,0,16.7,36.4l-1.111,4.444a1.111,1.111,0,0,0,.9,1.364l4.81.8a1.107,1.107,0,0,1,.928,1.1v8.118ZM44.445,41.112H43.333a1.109,1.109,0,0,0-.826.368L32.839,52.223H24.445V44.1a3.321,3.321,0,0,0-2.786-3.288l-3.623-.6.61-2.434h4.688a1.115,1.115,0,0,0,.551-.147l7.778-4.444c.017-.01.027-.028.043-.038s.051-.022.074-.039L34.1,31.36a5.562,5.562,0,0,0,.774,2.126,5.652,5.652,0,0,0,.6.784l-3.024,5.041L28.1,43.659a1.11,1.11,0,0,0,0,1.571l3.333,3.333a1.111,1.111,0,0,0,1.571,0l5.556-5.556a1.112,1.112,0,0,0,.139-.169l4.268-6.4,1.474.133ZM37.269,35.6a5.59,5.59,0,0,0,1.82.484l1.362.123-3.538,5.307-4.691,4.692L30.46,44.445l3.659-3.659a1.1,1.1,0,0,0,.167-.213ZM50,41.112H46.667V35.556a1.111,1.111,0,0,0-1.01-1.107l-6.366-.579a3.332,3.332,0,0,1-2.809-4.516l3.17-8.243h15.9v2.222h-10a1.11,1.11,0,0,0-1.089.893l-1.111,5.556a1.11,1.11,0,0,0,.907,1.314l4.81.8A1.105,1.105,0,0,1,50,32.994Z" transform="translate(0 0)" fill="rgba(29,13,1,0.98)"/>
        </g>
      </g>
    </g>
  </g>
</svg>
