<svg id="united-states" xmlns="http://www.w3.org/2000/svg" width="36" height="36" viewBox="0 0 36 36">
  <circle id="Ellipse_8" data-name="Ellipse 8" cx="18" cy="18" r="18" fill="#f0f0f0"/>
  <g id="Group_82" data-name="Group 82" transform="translate(0.62 3.913)">
    <path id="Path_154" data-name="Path 154" d="M244.87,193.913h18.783a18.019,18.019,0,0,0-.62-4.7H244.87Z" transform="translate(-228.273 -179.826)" fill="#d80027"/>
    <path id="Path_155" data-name="Path 155" d="M244.87,60.348h16.141a18.094,18.094,0,0,0-4.153-4.7H244.87Z" transform="translate(-228.273 -55.652)" fill="#d80027"/>
    <path id="Path_156" data-name="Path 156" d="M107.849,460.261a17.923,17.923,0,0,0,11.2-3.913H96.644A17.923,17.923,0,0,0,107.849,460.261Z" transform="translate(-90.469 -428.174)" fill="#d80027"/>
    <path id="Path_157" data-name="Path 157" d="M10.841,327.478H41.557a17.893,17.893,0,0,0,2.022-4.7H8.819A17.893,17.893,0,0,0,10.841,327.478Z" transform="translate(-8.819 -303.999)" fill="#d80027"/>
  </g>
  <path id="Path_158" data-name="Path 158" d="M8.338,2.811h1.64L8.452,3.919l.583,1.794L7.51,4.6,5.984,5.713l.5-1.549A18.1,18.1,0,0,0,3,8.054h.526l-.971.706q-.227.379-.436.769l.464,1.427-.865-.629q-.323.684-.589,1.4L1.636,13.3H3.522L2,14.406,2.579,16.2,1.053,15.092l-.914.664A18.174,18.174,0,0,0,0,18H18V0A17.915,17.915,0,0,0,8.338,2.811Zm.7,13.389L7.51,15.092,5.984,16.2l.583-1.794L5.041,13.3H6.927L7.51,11.5,8.092,13.3H9.978L8.452,14.406ZM8.452,9.163l.583,1.794L7.51,9.848,5.984,10.957l.583-1.794L5.041,8.054H6.927L7.51,6.261l.583,1.794H9.978ZM15.492,16.2l-1.526-1.108L12.44,16.2l.583-1.794L11.5,13.3h1.886l.583-1.794.583,1.794h1.886l-1.526,1.108Zm-.583-7.037.583,1.794L13.966,9.848,12.44,10.957l.583-1.794L11.5,8.054h1.886l.583-1.794.583,1.794h1.886Zm0-5.243.583,1.794L13.966,4.6,12.44,5.713l.583-1.794L11.5,2.811h1.886l.583-1.794.583,1.794h1.886Z" fill="#0052b4"/>
</svg>
