<svg xmlns="http://www.w3.org/2000/svg" width="40" height="40" viewBox="0 0 40 40">
  <g id="FLAG_-_UK" data-name="FLAG - UK">
    <path id="Path_605" data-name="Path 605" d="M18.663,55.829V46.5L11.7,51.638a20.19,20.19,0,0,0,6.963,4.191" transform="translate(-5.252 -16.978)" fill="#2a5f9e"/>
    <path id="Path_606" data-name="Path 606" d="M42,55.8a20.19,20.19,0,0,0,6.963-4.191L42,46.4Z" transform="translate(-15.411 -16.946)" fill="#2a5f9e"/>
    <path id="Path_607" data-name="Path 607" d="M3.7,42a12.03,12.03,0,0,0,.811,1.96L7.148,42Z" transform="translate(-2.551 -15.352)" fill="#2a5f9e"/>
    <path id="Path_608" data-name="Path 608" d="M55.2,42l2.636,1.96c.27-.608.541-1.284.811-1.96Z" transform="translate(-19.797 -15.352)" fill="#2a5f9e"/>
    <path id="Path_609" data-name="Path 609" d="M16.729,38H2.6c.2.946.473,1.825.744,2.7H6.791l-2.636,1.96a18.775,18.775,0,0,0,1.893,3.177L13.011,40.7h2.7v1.352L7.805,47.87l.946.946,6.963-5.07v9.329a17.706,17.706,0,0,0,2.7.744V38Z" transform="translate(-2.194 -14.224)" fill="#fff"/>
    <path id="Path_610" data-name="Path 610" d="M53.819,38H38V53.819c.946-.2,1.825-.473,2.7-.744V43.746l6.963,5.07a25.625,25.625,0,0,0,2.569-2.839L43,40.7h4.6l4.124,3.042a8.07,8.07,0,0,0,.541-1.082L49.627,40.7h3.448c.27-.879.541-1.758.744-2.7" transform="translate(-14.224 -14.224)" fill="#fff"/>
    <path id="Path_611" data-name="Path 611" d="M7.7,47.17a25.435,25.435,0,0,0,1.69,2.1l7.977-5.814V42.1h-2.7Z" transform="translate(-3.847 -15.447)" fill="#ed4c5c"/>
    <path id="Path_612" data-name="Path 612" d="M45.5,42l7.233,5.273c.27-.338.473-.676.744-1.014.068-.068.068-.135.135-.135.2-.338.473-.744.676-1.082L50.029,42Z" transform="translate(-16.654 -15.389)" fill="#ed4c5c"/>
    <path id="Path_613" data-name="Path 613" d="M42,3.7v9.329l6.963-5.138A20.19,20.19,0,0,0,42,3.7Z" transform="translate(-15.411 -2.551)" fill="#2a5f9e"/>
    <path id="Path_614" data-name="Path 614" d="M18.663,3.7A20.19,20.19,0,0,0,11.7,7.891L18.663,13.1Z" transform="translate(-5.252 -2.551)" fill="#2a5f9e"/>
    <path id="Path_615" data-name="Path 615" d="M58.648,21.061a12.03,12.03,0,0,0-.811-1.96L55.2,21.061h3.448" transform="translate(-19.797 -7.708)" fill="#2a5f9e"/>
    <path id="Path_616" data-name="Path 616" d="M7.148,21.061,4.511,19.1c-.27.676-.541,1.284-.811,1.96Z" transform="translate(-2.551 -7.708)" fill="#2a5f9e"/>
    <path id="Path_617" data-name="Path 617" d="M39.69,18.418H53.751c-.2-.946-.473-1.825-.744-2.7H49.56l2.636-1.96A18.775,18.775,0,0,0,50.3,10.577l-6.9,5.138H40.7V14.362l7.909-5.814L47.667,7.6,40.7,12.672V3.343A17.706,17.706,0,0,0,38,2.6V18.418Z" transform="translate(-14.224 -2.194)" fill="#fff"/>
    <path id="Path_618" data-name="Path 618" d="M2.6,18.418H18.419V2.6c-.946.2-1.825.473-2.7.744v9.329L8.752,7.6a25.625,25.625,0,0,0-2.569,2.839l7.233,5.273h-4.6L4.7,12.672a8.07,8.07,0,0,0-.541,1.082l2.636,1.96H3.344C3.073,16.593,2.8,17.472,2.6,18.418Z" transform="translate(-2.194 -2.194)" fill="#fff"/>
    <path id="Path_619" data-name="Path 619" d="M51.667,13.4a25.433,25.433,0,0,0-1.69-2.1L42,17.113v1.352h2.7l6.963-5.07" transform="translate(-15.52 -5.119)" fill="#ed4c5c"/>
    <path id="Path_620" data-name="Path 620" d="M14.321,19.473,7.155,14.2c-.27.338-.473.676-.744,1.014-.068.068-.068.135-.135.135-.2.338-.473.744-.676,1.082l4.124,3.042Z" transform="translate(-3.166 -6.084)" fill="#ed4c5c"/>
    <path id="Path_621" data-name="Path 621" d="M41.6,18H26V2.4a20.2,20.2,0,0,0-8,0V18H2.4a20.2,20.2,0,0,0,0,8H18V41.6a20.2,20.2,0,0,0,8,0V26H41.6a20.2,20.2,0,0,0,0-8Z" transform="translate(-2 -2)" fill="#ed4c5c"/>
  </g>
</svg>
