<svg xmlns="http://www.w3.org/2000/svg" xmlns:xlink="http://www.w3.org/1999/xlink" width="67" height="67" viewBox="0 0 67 67">
  <defs>
    <clipPath id="clip-path">
      <rect id="Rectangle_126" data-name="Rectangle 126" width="67" height="67" transform="translate(625 3392)" fill="#fff" stroke="#707070" stroke-width="1"/>
    </clipPath>
  </defs>
  <g id="Mask_Group_2" data-name="Mask Group 2" transform="translate(-625 -3392)" clip-path="url(#clip-path)">
    <g id="_006-healthy-heart" data-name="006-healthy-heart" transform="translate(625 3398.818)">
      <path id="Path_26" data-name="Path 26" d="M39.138,23.332c-10.961-6.851-14.45,4.941-10.961,9.592,4.111,5.481,10.961,8.222,10.961,8.222S45.989,38.4,50.1,32.923C53.588,28.273,50.1,16.481,39.138,23.332Zm0,0" transform="translate(-5.691 -4.498)" fill="#93c7e7"/>
      <g id="Group_31" data-name="Group 31" transform="translate(0 0)">
        <path id="Path_28" data-name="Path 28" d="M66.908,20.779l-4.639-9.941a.983.983,0,0,0-1.782.832l4.4,9.433c-1.269,1.795-6.372,8.5-12.522,9.6A9.422,9.422,0,0,1,45.3,29.142a8.655,8.655,0,0,0,1.37-5.408,10.193,10.193,0,0,0-.327-2.049,3.24,3.24,0,0,1,1.837-.557,4.809,4.809,0,0,1,4.365,2.6.984.984,0,0,0,.879.543c.024,0,.047,0,.07,0a.983.983,0,0,0,.863-.67c.862-2.587,4.515-3.544,4.55-3.553a.993.993,0,0,0,.7-1.237L56.469,8.325a.982.982,0,0,0-.942-.7H51.266V4.938l2.191-1.46L57.91,6.149l.9,1.924a.983.983,0,1,0,1.782-.832l-1.025-2.2a.986.986,0,0,0-.385-.427L53.935,1.471a.983.983,0,0,0-1.051.025l-3.147,2.1a.983.983,0,0,0-.438.818v4.2a.983.983,0,0,0,.983.983H54.8l2.662,8.872A9.3,9.3,0,0,0,53.32,21.4a6.866,6.866,0,0,0-5.136-2.237,5.141,5.141,0,0,0-2.56.661,7.759,7.759,0,0,0-1.143-1.64,6.555,6.555,0,0,0-4.728-2.138,11.962,11.962,0,0,0-6.306,1.92,11.954,11.954,0,0,0-6.306-1.92,6.553,6.553,0,0,0-4.728,2.139,7.726,7.726,0,0,0-1.121,1.6,5.209,5.209,0,0,0-2.476-.619A6.864,6.864,0,0,0,13.68,21.4a9.3,9.3,0,0,0-4.137-2.937L12.2,9.591h4.513a.984.984,0,0,0,.983-.983v-4.2a.984.984,0,0,0-.438-.818L14.116,1.5a.984.984,0,0,0-1.051-.025L7.82,4.618a.988.988,0,0,0-.385.428L.092,20.779a.983.983,0,0,0,.066.95c.247.383,6.16,9.4,14.009,10.889a11.264,11.264,0,0,0,8.706-1.9,30.585,30.585,0,0,0,10.209,7.119.986.986,0,0,0,.73,0,30.557,30.557,0,0,0,10.249-7.164,11.266,11.266,0,0,0,8.654,1.963c7.907-1.423,13.877-10.524,14.128-10.911a.985.985,0,0,0,.065-.95ZM14.539,30.687c-6.1-1.156-11.162-7.8-12.427-9.586L9.09,6.149l4.453-2.672,2.191,1.46V7.624H11.473a.983.983,0,0,0-.942.7L7.384,18.814a1,1,0,0,0,.7,1.237c.037.009,3.69.966,4.552,3.553a.983.983,0,0,0,1.813.129,4.809,4.809,0,0,1,4.365-2.6,3.248,3.248,0,0,1,1.747.5,10.158,10.158,0,0,0-.344,2.107,8.62,8.62,0,0,0,1.406,5.458,9.4,9.4,0,0,1-7.085,1.495Zm18.906,5.171C32,35.215,26.64,32.609,23.271,28.117c-1.689-2.252-1.4-6.433.59-8.6a4.6,4.6,0,0,1,3.522-1.5,10.863,10.863,0,0,1,5.542,1.937.983.983,0,0,0,1.042,0c3.877-2.423,7.1-2.578,9.065-.435,1.993,2.169,2.279,6.35.589,8.6-3.361,4.481-8.735,7.1-10.176,7.741Zm0,0" transform="translate(0 -0.282)" fill="rgba(29,13,1,0.98)"/>
        <path id="Path_29" data-name="Path 29" d="M45.994,10.963a.983.983,0,1,0,1.434-1.345,9.368,9.368,0,0,0-13.675,0,.983.983,0,1,0,1.434,1.345,7.4,7.4,0,0,1,10.806,0Zm0,0" transform="translate(-7.091 -1.409)" fill="rgba(29,13,1,0.98)"/>
        <path id="Path_30" data-name="Path 30" d="M30.333,5.966a12.651,12.651,0,0,1,18.46,0,.983.983,0,0,0,1.434-1.345,14.617,14.617,0,0,0-21.329,0,.983.983,0,1,0,1.434,1.345Zm0,0" transform="translate(-6.063 0)" fill="rgba(29,13,1,0.98)"/>
        <path id="Path_31" data-name="Path 31" d="M41.619,13.307a4.147,4.147,0,0,0-3.012,1.306.983.983,0,0,0,1.434,1.346,2.161,2.161,0,0,1,3.156,0,.983.983,0,0,0,1.434-1.345,4.144,4.144,0,0,0-3.012-1.306Zm0,0" transform="translate(-8.119 -2.818)" fill="rgba(29,13,1,0.98)"/>
        <path id="Path_32" data-name="Path 32" d="M35.188,55.5a.983.983,0,1,0-1.434,1.345,9.368,9.368,0,0,0,13.675,0A.983.983,0,1,0,45.994,55.5a7.4,7.4,0,0,1-10.806,0Zm0,0" transform="translate(-7.092 -11.686)" fill="rgba(29,13,1,0.98)"/>
        <path id="Path_33" data-name="Path 33" d="M48.793,60.048a12.651,12.651,0,0,1-18.46,0A.983.983,0,0,0,28.9,61.393a14.617,14.617,0,0,0,21.329,0,.983.983,0,0,0-1.434-1.345Zm0,0" transform="translate(-6.063 -12.65)" fill="rgba(29,13,1,0.98)"/>
        <path id="Path_34" data-name="Path 34" d="M41.619,53.6a4.145,4.145,0,0,0,3.012-1.306A.983.983,0,0,0,43.2,50.946a2.161,2.161,0,0,1-3.156,0,.983.983,0,1,0-1.434,1.346A4.147,4.147,0,0,0,41.619,53.6Zm0,0" transform="translate(-8.119 -10.723)" fill="rgba(29,13,1,0.98)"/>
      </g>
    </g>
  </g>
</svg>
