<svg id="Layer_1" enable-background="new 0 0 511.948 511.948" height="512" viewBox="0 0 511.948 511.948" width="512" xmlns="http://www.w3.org/2000/svg"><g><g><path d="m491.974 453.669v-196.409c0-2.567-.987-5.036-2.757-6.896l-37.243-39.118v-24.655c-.529-13.268-19.476-13.258-20 0v24.655l-20 21.007v-24.821c0-2.968-1.318-5.782-3.598-7.683l-72.001-60.002c-2.982-2.484-7.13-3.019-10.644-1.373s-5.758 5.176-5.758 9.056v214.534h-20.001v-163.31c0-5.522-4.477-10-10-10h-10v-31.224h10c5.523 0 10-4.478 10-10v-137.483c-.529-13.268-19.476-13.258-20 0v36.002l-77.243 81.133c-1.77 1.859-2.757 4.328-2.757 6.896v77.973c.529 13.268 19.476 13.258 20 0v-73.974l60-63.021v62.476h-10c-5.523 0-10 4.478-10 10v51.224c0 5.522 4.477 10 10 10h10v23.327h-10c-13.268.528-13.258 19.476 0 20h10v23.328h-10c-13.268.528-13.258 19.476 0 20h10v23.327h-10c-13.268.528-13.258 19.476 0 20h10v23.328h-10c-13.268.528-13.258 19.476 0 20h10v23.328h-10c-13.268.528-13.258 19.476 0 20h10v26.655.001h-39.999v-.001-149.999c0-5.522-4.477-10-10-10h-69.998v-110.001c0-5.522-4.477-10-10-10h-30.002v-.001-79.993c0-5.522-4.477-10-10-10h-39.998c-5.523 0-10 4.478-10 10v79.993.001h-30.002c-5.523 0-10 4.478-10 10v271.72c-31.325 11.594-23.804 57.642 10 58.279h452c33.83-.645 41.306-46.699 10.001-58.279zm-80-1.72v-124.688h59.999v124.688zm60-144.687h-60v-20.001h59.999v20.001zm0-40.001h-60v-6.002l30-31.511 30 31.511zm-132.002 71.376h7.942c13.268-.529 13.258-19.476 0-20h-7.942v-23.327h7.942c13.268-.529 13.258-19.476 0-20h-7.942v-23.328h7.942c13.268-.528 13.258-19.476 0-20h-7.942v-63.2l52.001 43.335v45.144 104.705h-52.001zm-40.001 113.311v-69.983h92.003v69.983.001h-16.001v-.001-40.706c0-5.522-4.477-10-10-10h-40c-5.523 0-10 4.478-10 10v40.706.001zm56.002.001h-20.001v-.001-30.706h20zm-316-219.999h100v219.998.001h-100zm120 219.998v-99.998h59.999v99.998.001zm.001-139.998h59.998v20h-59.999zm-79.999-140.002v-69.993h19.997v69.993.001zm59.998 20.001v20.001h-99.999v-20.001zm342.001 299.999h-452c-13.269-.551-13.258-19.453 0-19.999h452c13.268.551 13.259 19.453 0 19.999z"/><path d="m109.972 251.95h-39.997c-13.268.528-13.258 19.476 0 20h39.997c13.268-.528 13.258-19.476 0-20z"/><path d="m109.972 291.95h-39.997c-13.268.528-13.258 19.476 0 20h39.997c13.268-.528 13.258-19.476 0-20z"/><path d="m109.972 331.95h-39.997c-13.268.528-13.258 19.476 0 20h39.997c13.268-.528 13.258-19.476 0-20z"/><path d="m109.972 371.95h-39.997c-13.268.528-13.258 19.476 0 20h39.997c13.268-.528 13.258-19.476 0-20z"/><path d="m109.972 411.95h-39.997c-13.268.528-13.258 19.476 0 20h39.997c13.268-.528 13.258-19.476 0-20z"/><path d="m376.48 97.962h105.989c33.323-.64 40.617-46.037 9.749-57.353-4.286-40.033-55.176-55.125-80.604-23.709-18.286-6.766-39.614 4.974-44.022 23.421-31.721 10.701-24.968 56.855 8.888 57.641zm0-39.008c5.523 0 10-4.478 10-10-.152-11.396 13.549-18.126 22.453-11.03 2.385 1.847 5.476 2.518 8.413 1.825 2.936-.69 5.403-2.671 6.714-5.387 12.797-25.354 50.636-14.736 48.283 13.6-.28 2.812.642 5.609 2.537 7.703 1.896 2.095 4.589 3.289 7.414 3.289h.176c12.611.524 12.602 18.489 0 19.008h-105.99c-12.61-.524-12.601-18.489 0-19.008z"/><path d="m219.971 256.954v-.008c0-5.522-4.477-9.996-10-9.996-13.263.528-13.263 19.479 0 20.004 5.523 0 10-4.477 10-10z"/></g></g></svg>