<svg xmlns="http://www.w3.org/2000/svg" width="6724.139" height="1754.031" viewBox="0 0 6724.139 1754.031">
  <g id="LOGO" transform="translate(-352.486 -312.688)">
    <path id="_HACK_-_TEXT_SVG_Noto_Sans_240px_-20_letter_space_" data-name="#HACK - TEXT SVG (Noto Sans, 240px, -20 letter space)" d="M484.8,412.587,441.578,624.95H678.372V814.762h-272.5l-71.414,372.105H133.37l71.414-372.105H26.249l-69.535,372.105H-240.615l67.655-372.105h-218V624.95h253.708l43.224-212.363H-325.184V220.9H-60.2L11.214-153.088H212.3L140.887,220.9H323.181L394.6-153.088H591.924L520.509,220.9H740.39V412.587ZM61.956,624.95H242.37l43.224-212.363H105.18Zm1950.733,561.916H1728.911V608.037H1197.064v578.83H913.287V-154.967h283.777V371.242h531.847V-154.967h283.777Zm1121.954,0-97.725-319.484H2548.294l-97.725,319.484H2144.241L2617.829-160.6H2965.5l475.468,1347.471Zm-165.38-558.158-97.725-311.967q-9.4-31.948-24.431-80.811t-30.069-99.6Q2802,85.586,2792.606,48q-9.4,37.586-25.371,93.026t-30.069,105.242q-14.095,49.8-21.612,70.474l-95.845,311.967ZM4104.37,63.034q-163.5,0-249.949,122.156t-86.449,334.519q0,214.242,79.871,331.7T4104.37,968.866a736,736,0,0,0,163.5-18.793q82.69-18.793,178.535-52.621v238.673q-88.328,35.707-174.776,52.621t-193.57,16.914q-208.6,0-342.036-85.509T3538.7,879.6q-63.9-155.044-63.9-361.769,0-202.966,73.293-358.95t213.3-244.311Q3901.4-173.76,4104.37-173.76q99.6,0,200.147,25.371a1066.03,1066.03,0,0,1,192.63,68.6l-92.087,231.156a1477.926,1477.926,0,0,0-151.285-62.018Q4177.664,63.034,4104.37,63.034ZM5773.205,1186.867H5449.962L5098.53,621.192,4978.253,707.64v479.226H4694.477V-154.967h283.776V459.57l56.38-78.931,56.379-78.931,362.708-456.675h315.726L5301.5,438.9Z" transform="translate(743.446 658.72)" fill="#ef4e25"/>
    <g id="Indicator_Mouse_-_Shadow" data-name="Indicator + Mouse - Shadow" transform="translate(6467.789 336.18)">
      <rect id="Rectangle_435" data-name="Rectangle 435" width="140.949" height="1730.539" fill="#a0a0a0"/>
      <path id="mouse-pointer" d="M336.652,309.91q9.215,8.919,4.156,20.5Q335.75,342.3,323.281,342.3h-113.5L269.5,483.746a18.554,18.554,0,0,1,0,14.554,19.238,19.238,0,0,1-10.1,10.4l-52.6,22.29a18.554,18.554,0,0,1-14.554,0,19.239,19.239,0,0,1-10.4-10.1L125.1,386.585,32.392,479.294a18.278,18.278,0,0,1-13.371,5.65,18.476,18.476,0,0,1-7.129-1.479Q0,478.406,0,465.938V19.021Q0,6.538,11.892,1.479A18.476,18.476,0,0,1,19.021,0,17.66,17.66,0,0,1,32.392,5.65Z" transform="translate(266.236 1198.066)" fill="#a0a0a0"/>
    </g>
    <g id="Indicator_Mouse" data-name="Indicator + Mouse" transform="translate(6444.297 312.688)">
      <rect id="Rectangle_439" data-name="Rectangle 439" width="140.949" height="1730.539"/>
      <path id="mouse-pointer-2" data-name="mouse-pointer" d="M336.652,309.91q9.215,8.919,4.156,20.5Q335.75,342.3,323.281,342.3h-113.5L269.5,483.746a18.554,18.554,0,0,1,0,14.554,19.238,19.238,0,0,1-10.1,10.4l-52.6,22.29a18.554,18.554,0,0,1-14.554,0,19.239,19.239,0,0,1-10.4-10.1L125.1,386.585,32.392,479.294a18.278,18.278,0,0,1-13.371,5.65,18.476,18.476,0,0,1-7.129-1.479Q0,478.406,0,465.938V19.021Q0,6.538,11.892,1.479A18.476,18.476,0,0,1,19.021,0,17.66,17.66,0,0,1,32.392,5.65Z" transform="translate(266.236 1198.066)"/>
    </g>
  </g>
</svg>
