<svg xmlns="http://www.w3.org/2000/svg" width="67" height="69.176" viewBox="0 0 67 69.176">
  <g id="Group_100" data-name="Group 100" transform="translate(-625 -3975)">
    <path id="Path_70" data-name="Path 70" d="M633.5,4060h53l-2.167-5.667-4.833-6.167-6-5-7.667-3h-12.5l-5.667,3L641.833,4046l-4,4.667L635,4054.333l-1.5,4Z" transform="translate(0 -52)" fill="#93c7e7"/>
    <g id="_003-food" data-name="003-food" transform="translate(611.056 3968.84)">
      <path id="Path_66" data-name="Path 66" d="M194.164,149.7c-.271.117-.541.241-.8.368a.831.831,0,0,0,.725,1.495c.241-.117.489-.23.738-.338a.83.83,0,0,0-.658-1.525Z" transform="translate(-154.183 -123.617)" fill="rgba(29,13,1,0.98)"/>
      <path id="Path_67" data-name="Path 67" d="M145.988,161.736a18.759,18.759,0,0,0-5.181,5.141.83.83,0,0,0,1.378.926,17.1,17.1,0,0,1,4.726-4.687.83.83,0,0,0-.923-1.381Z" transform="translate(-109.184 -133.924)" fill="rgba(29,13,1,0.98)"/>
      <path id="Path_68" data-name="Path 68" d="M69.758,456.525a2.454,2.454,0,1,0,2.454-2.453A2.454,2.454,0,0,0,69.758,456.525Zm3.246,0a.793.793,0,1,1-.793-.793.793.793,0,0,1,.793.793Z" transform="translate(-48.09 -385.923)" fill="rgba(29,13,1,0.98)"/>
      <path id="Path_69" data-name="Path 69" d="M77.813,38.8H76.065C73.532,27.746,63.636,19.551,51.734,18.351v-2.8a5.311,5.311,0,0,0,2.117-4.2,5.188,5.188,0,1,0-10.376,0,4.988,4.988,0,0,0,2.169,4.2v2.8c-12.04,1.2-21.917,9.4-24.45,20.448H19.5a3.163,3.163,0,0,0-3.188,3.017,3.119,3.119,0,0,0,3.129,3.211h.162l.54,2.922a3.533,3.533,0,0,0,3.478,2.891h9.443a12.123,12.123,0,0,0-2.74,1.55c-.018.014-.036.028-.053.043L28.6,53.927a5.746,5.746,0,0,1-2.17,1.209l-.033-.123a1.393,1.393,0,0,0-1.321-.99H15.327A1.409,1.409,0,0,0,13.994,55.8l5.15,18.5a1.4,1.4,0,0,0,1.333,1.028H30.791a1.4,1.4,0,0,0,1.324-1.8L30.75,69.051l4.93-3.118a2.925,2.925,0,0,1,2.13-.276l.052.011,10.132,1.865a13.141,13.141,0,0,0,1.39.176,12.81,12.81,0,0,0,8.131-2.259L73.768,54.291a.83.83,0,0,0,.241-1.113,4.88,4.88,0,0,0-3.637-2.338h3.176a3.547,3.547,0,0,0,3.463-2.813l.624-3h.12a3.163,3.163,0,0,0,3.188-3.017A3.119,3.119,0,0,0,77.813,38.8ZM45.1,11.348a3.527,3.527,0,1,1,3.527,3.527A3.527,3.527,0,0,1,45.1,11.348Zm4.97,5V18.23c-.554-.021-.923-.032-1.384-.032s-.969.011-1.384.032V16.349a5.1,5.1,0,0,0,1.384.187,5.946,5.946,0,0,0,1.384-.187Zm-1.443,3.51c12.359,0,23.006,7.906,25.728,18.94H22.9C25.624,27.766,36.274,19.859,48.63,19.859ZM20.688,73.675l-5-17.991h9.194l5.536,17.991ZM72.106,53.418,56.575,64.081A11.15,11.15,0,0,1,49.5,66.053a11.44,11.44,0,0,1-1.211-.153l-10.1-1.861a4.577,4.577,0,0,0-3.337.453l-.038.023L30.242,67.4l-3.319-10.68a7.409,7.409,0,0,0,2.78-1.557L31.354,53.7a10.345,10.345,0,0,1,10.74-1.031l.7.336a8.9,8.9,0,0,0,3.85.882h6.74a4.188,4.188,0,0,1,4.089,3.308l-4.79-.217a29.27,29.27,0,0,0-5.33.246.83.83,0,0,0,.228,1.645,27.643,27.643,0,0,1,5.027-.232l5.749.26h.038a.83.83,0,0,0,.83-.83c0-.108,0-.215-.009-.321l9.074-4.885a3.226,3.226,0,0,1,3.82.559ZM42.069,50.84H54.218l-2.545,1.384H46.639a7.224,7.224,0,0,1-3.127-.717l-.7-.336Q42.447,50.992,42.069,50.84Zm14.7,2.475a5.823,5.823,0,0,0-1.955-.912l1.437-.781.02-.011a3.8,3.8,0,0,1,3.66,0Zm6.3-1.505a2.476,2.476,0,0,1,2.659.542l-6.864,3.7a5.845,5.845,0,0,0-.839-1.522Zm3.448-.97h2.747A4.891,4.891,0,0,0,67.5,51.4l-.245.132a4.457,4.457,0,0,0-.735-.689Zm11.3-7.473H33.6a.83.83,0,0,0,0,1.661H75.939l-.554,2.661a1.879,1.879,0,0,1-1.837,1.49H23.626a1.872,1.872,0,0,1-1.844-1.531L21.3,45.027h7.6a.83.83,0,1,0,0-1.661H19.478a1.484,1.484,0,0,1-1.5-1.446,1.457,1.457,0,0,1,1.469-1.46H77.782a1.484,1.484,0,0,1,1.5,1.446,1.457,1.457,0,0,1-1.47,1.46Z" transform="translate(0 0)" fill="rgba(29,13,1,0.98)"/>
    </g>
  </g>
</svg>
