<svg xmlns="http://www.w3.org/2000/svg" width="40" height="40" viewBox="0 0 40 40">
  <g id="Group_196" data-name="Group 196" transform="translate(-4256 772)">
    <path id="Path_583" data-name="Path 583" d="M413.333,6.072a20.056,20.056,0,0,0-21.333,0V39.928a20.056,20.056,0,0,0,21.333,0Z" transform="translate(3873.333 -775)" fill="#f9f9f9"/>
    <path id="Path_584" data-name="Path 584" d="M424,7.6V41.466A20.028,20.028,0,0,0,424,7.6" transform="translate(3862.667 -776.533)" fill="#ed4c5c"/>
    <path id="Path_585" data-name="Path 585" d="M387.333,7.6a20.088,20.088,0,0,0,0,33.933Z" transform="translate(3878 -776.533)" fill="#ed4c5c"/>
    <path id="Path_586" data-name="Path 586" d="M411.267,28.4a.443.443,0,0,1-.267-.533l.667-2.4-2.333.467c-.067,0-.333,0-.4-.467l-.2-.8-1.6,1.867s-1.067,1.133-.733-.6l.667-3.667-1.267.667c-.067,0-.333.067-.667-.6L404,20l-1.2,2.2c-.333.667-.6.6-.667.6l-1.267-.667.667,3.667c.333,1.733-.733.6-.733.6l-1.6-1.867-.2.8c-.133.467-.333.467-.4.467l-2.333-.467.667,2.4a.49.49,0,0,1-.267.533l-.667.4s2.667,2.133,3.533,2.867a.99.99,0,0,1,.467,1l-.333.933,3.667-.533c.2,0,.6,0,.533.6l-.2,3.8h.667l-.2-3.8c0-.6.4-.6.533-.6l3.667.533L408,32.533a.99.99,0,0,1,.467-1c.867-.733,3.533-2.867,3.533-2.867Z" transform="translate(3872 -780.633)" fill="#ed4c5c"/>
  </g>
</svg>
