<svg xmlns="http://www.w3.org/2000/svg" width="56" height="53.761" viewBox="0 0 56 53.761">
  <path id="global-network" d="M53.833,47.751a.811.811,0,0,0,.043-.1,27.131,27.131,0,0,0-1.584-24.221,3.326,3.326,0,0,0-3.956-5.165c-.574-.587-1.177-1.149-1.8-1.681A3.325,3.325,0,0,0,41.118,13a26.794,26.794,0,0,0-23.993.127,3.32,3.32,0,0,0-5.436,3.686,27.073,27.073,0,0,0-2.562,2.561c-.685.784.556,1.858,1.236,1.08a25.43,25.43,0,0,1,2.382-2.384,3.344,3.344,0,0,0,4.9-1.22,35.728,35.728,0,0,1,8.412,3.64,3.379,3.379,0,0,0,.248,2.415,37.76,37.76,0,0,0-5.809,6.306,3.352,3.352,0,0,0-3.966,1.8,51.19,51.19,0,0,0-10.3,1.107,3.346,3.346,0,0,0-1.305-1.332,25.127,25.127,0,0,1,3.009-7.043.821.821,0,0,0-1.394-.867,26.763,26.763,0,0,0-3.2,7.487,3.331,3.331,0,0,0-.849,6.552,27.11,27.11,0,0,0,9.1,20.394,3.322,3.322,0,0,0,5.314,3.661,26.787,26.787,0,0,0,24.707,0,3.32,3.32,0,0,0,5.378-3.717,26.875,26.875,0,0,0,6.856-9.506ZM52.8,45.915a51.486,51.486,0,0,0-7.412-6.1,3.364,3.364,0,0,0-.831-3.381,51.287,51.287,0,0,0,5.218-11.848,3.282,3.282,0,0,0,1.17-.212A25.484,25.484,0,0,1,52.8,45.915ZM15.033,55.193a36,36,0,0,1,3.521-19.614,3.352,3.352,0,0,0,4.24-2.557,49.136,49.136,0,0,1,16.224,4.946,3.372,3.372,0,0,0,.544,2.806,49.543,49.543,0,0,1-22.085,15.95,3.317,3.317,0,0,0-2.443-1.532ZM40.554,38.8a1.687,1.687,0,1,1,1.674,1.687A1.682,1.682,0,0,1,40.554,38.8Zm10.9-17.543a1.687,1.687,0,1,1-1.674-1.687A1.682,1.682,0,0,1,51.455,21.257Zm-4.373-1.929a3.368,3.368,0,0,0,1.1,4.845A49.653,49.653,0,0,1,43.14,35.6a3.368,3.368,0,0,0-1.414-.091,38.066,38.066,0,0,0-9.533-12.6,3.375,3.375,0,0,0,.248-2.415,35.726,35.726,0,0,1,8.087-3.546,3.32,3.32,0,0,0,5.046.972q.781.672,1.508,1.408ZM27.573,21.384a1.687,1.687,0,1,1,1.674,1.686A1.682,1.682,0,0,1,27.573,21.384Zm15.874-7.7a1.674,1.674,0,1,1-1.674,1.687A1.682,1.682,0,0,1,43.447,13.683ZM14.674,17.056a1.674,1.674,0,1,1,1.674-1.687A1.682,1.682,0,0,1,14.674,17.056Zm3.313-1.812a3.331,3.331,0,0,0-.092-.664,25.148,25.148,0,0,1,22.376-.165,3.327,3.327,0,0,0-.139.938,37.372,37.372,0,0,0-8.506,3.716,3.342,3.342,0,0,0-4.757,0,37.374,37.374,0,0,0-8.882-3.825Zm9.4,8.894a3.328,3.328,0,0,0,3.719,0,36.416,36.416,0,0,1,9.111,12.019,3.353,3.353,0,0,0-.408.371,50.769,50.769,0,0,0-17.124-5.174,3.333,3.333,0,0,0-.784-1.286,36.1,36.1,0,0,1,5.487-5.931Zm-7.85,6.576A1.674,1.674,0,1,1,17.863,32.4,1.682,1.682,0,0,1,19.537,30.714ZM1.628,33.692A1.687,1.687,0,1,1,3.3,35.379a1.682,1.682,0,0,1-1.674-1.686Zm2.5,3.224a3.259,3.259,0,0,0,2.493-3.2,92.546,92.546,0,0,1,9.615-1.058,3.322,3.322,0,0,0,.921,2.054,37.638,37.638,0,0,0-3.746,20.717,3.321,3.321,0,0,0-.874.537c-5.354-4.8-8.408-12.833-8.408-19.047Zm10.55,23.271a1.687,1.687,0,0,1,0-3.373A1.712,1.712,0,0,1,16.349,58.5,1.682,1.682,0,0,1,14.674,60.187Zm14.573,2.175A25.064,25.064,0,0,1,17.8,59.6a3.413,3.413,0,0,0,.178-1.311A51.178,51.178,0,0,0,40.83,41.817a3.309,3.309,0,0,0,1.574.307,36.236,36.236,0,0,1,.857,4.114A.821.821,0,0,0,44.885,46a37.881,37.881,0,0,0-.913-4.368,3.332,3.332,0,0,0,.545-.424,49.828,49.828,0,0,1,7.605,6.356,25.239,25.239,0,0,1-6.175,8.415,3.308,3.308,0,0,0-.869-.468,38.143,38.143,0,0,0,.208-4.59.821.821,0,0,0-1.641.025,36.5,36.5,0,0,1-.2,4.412,3.364,3.364,0,0,0-2.668,4.2,25.06,25.06,0,0,1-11.528,2.81ZM43.964,60.33a1.674,1.674,0,1,1,1.674-1.687A1.682,1.682,0,0,1,43.964,60.33Z" transform="translate(-0.002 -10.23)" fill="rgba(29,13,1,0.98)"/>
</svg>
