<svg xmlns="http://www.w3.org/2000/svg" width="67.209" height="67" viewBox="0 0 67.209 67">
  <g id="SVG_-_CITY" data-name="SVG - CITY" transform="translate(-4178 196)">
    <rect id="Rectangle_376" data-name="Rectangle 376" width="20" height="6" transform="translate(4188 -171)" fill="#fff"/>
    <rect id="Rectangle_377" data-name="Rectangle 377" width="20" height="6" transform="translate(4188 -158)" fill="#fff"/>
    <g id="cityscape" transform="translate(4178 -196)">
      <g id="Group_223" data-name="Group 223" transform="translate(0 0)">
        <g id="Group_222" data-name="Group 222">
          <path id="Path_629" data-name="Path 629" d="M66.211,51.367H59.634V43.211a1,1,0,0,0-2,0V65.8H40.507V36.146H57.638v2.407a1,1,0,1,0,2,0v-3.4a1,1,0,0,0-1-1H45V1.794a1,1,0,0,0-1-1H23.24a1,1,0,0,0-1,1V16.726H9.33a1,1,0,0,0-1,1V42.265H1a1,1,0,0,0-1,1V66.8a1,1,0,0,0,1,1H66.211a1,1,0,0,0,1-1V52.365A1,1,0,0,0,66.211,51.367ZM8.332,65.8H2V44.262H8.332Zm20.76,0H10.328V60.28H29.092Zm0-14.236h-9a1,1,0,1,0,0,2h9v4.724H10.328V53.56h5.11a1,1,0,1,0,0-2h-5.11V46.839H29.092Zm0-6.72H10.328V40.118H29.092Zm0-6.721H10.328V33.4H29.092Zm0-6.721H10.328V26.677H29.092Zm0-6.721H10.328V18.722H29.092Zm9.419,10.467V65.8H31.088V17.724a1,1,0,0,0-1-1H28.729v-2a1,1,0,1,0-2,0v2h-2.5V2.792H43V34.15H39.509A1,1,0,0,0,38.511,35.148ZM65.213,65.8H59.634V53.363h5.578Z" transform="translate(0 -0.796)"/>
        </g>
      </g>
      <g id="Group_225" data-name="Group 225" transform="translate(38.511 21.626)">
        <g id="Group_224" data-name="Group 224">
          <path id="Path_630" data-name="Path 630" d="M294.375,165.543a1,1,0,0,0-1,1v2.994a1,1,0,1,0,2,0v-2.994A1,1,0,0,0,294.375,165.543Z" transform="translate(-293.377 -165.543)"/>
        </g>
      </g>
      <g id="Group_227" data-name="Group 227" transform="translate(32.622 21.626)">
        <g id="Group_226" data-name="Group 226">
          <path id="Path_631" data-name="Path 631" d="M249.514,165.543a1,1,0,0,0-1,1v2.994a1,1,0,0,0,2,0v-2.994A1,1,0,0,0,249.514,165.543Z" transform="translate(-248.516 -165.543)"/>
        </g>
      </g>
      <g id="Group_229" data-name="Group 229" transform="translate(38.511 12.936)">
        <g id="Group_228" data-name="Group 228">
          <path id="Path_632" data-name="Path 632" d="M294.375,99.34a1,1,0,0,0-1,1v2.994a1,1,0,1,0,2,0v-2.994A1,1,0,0,0,294.375,99.34Z" transform="translate(-293.377 -99.34)"/>
        </g>
      </g>
      <g id="Group_231" data-name="Group 231" transform="translate(32.622 12.936)">
        <g id="Group_230" data-name="Group 230">
          <path id="Path_633" data-name="Path 633" d="M249.514,99.34a1,1,0,0,0-1,1v2.994a1,1,0,1,0,2,0v-2.994A1,1,0,0,0,249.514,99.34Z" transform="translate(-248.516 -99.34)"/>
        </g>
      </g>
      <g id="Group_233" data-name="Group 233" transform="translate(26.733 4.245)">
        <g id="Group_232" data-name="Group 232">
          <path id="Path_634" data-name="Path 634" d="M204.652,33.137a1,1,0,0,0-1,1V37.13a1,1,0,0,0,2,0V34.135A1,1,0,0,0,204.652,33.137Z" transform="translate(-203.654 -33.137)"/>
        </g>
      </g>
      <g id="Group_235" data-name="Group 235" transform="translate(38.511 4.245)">
        <g id="Group_234" data-name="Group 234">
          <path id="Path_635" data-name="Path 635" d="M294.375,33.137a1,1,0,0,0-1,1V37.13a1,1,0,1,0,2,0V34.135A1,1,0,0,0,294.375,33.137Z" transform="translate(-293.377 -33.137)"/>
        </g>
      </g>
      <g id="Group_237" data-name="Group 237" transform="translate(32.622 4.245)">
        <g id="Group_236" data-name="Group 236">
          <path id="Path_636" data-name="Path 636" d="M249.514,33.137a1,1,0,0,0-1,1V37.13a1,1,0,0,0,2,0V34.135A1,1,0,0,0,249.514,33.137Z" transform="translate(-248.516 -33.137)"/>
        </g>
      </g>
      <g id="Group_239" data-name="Group 239" transform="translate(38.512 30.364)">
        <g id="Group_238" data-name="Group 238">
          <path id="Path_637" data-name="Path 637" d="M293.852,232.26a1,1,0,1,0,1.481,1.156A1,1,0,0,0,293.852,232.26Z" transform="translate(-293.389 -232.109)"/>
        </g>
      </g>
      <g id="Group_241" data-name="Group 241" transform="translate(32.622 30.359)">
        <g id="Group_240" data-name="Group 240">
          <path id="Path_638" data-name="Path 638" d="M249.514,232.075a1,1,0,0,0-1,1v2.994a1,1,0,1,0,2,0v-2.994A1,1,0,0,0,249.514,232.075Z" transform="translate(-248.516 -232.075)"/>
        </g>
      </g>
      <g id="Group_243" data-name="Group 243" transform="translate(32.622 56.56)">
        <g id="Group_242" data-name="Group 242">
          <path id="Path_639" data-name="Path 639" d="M249.514,431.671a1,1,0,0,0-1,1v2.994a1,1,0,0,0,2,0v-2.994A1,1,0,0,0,249.514,431.671Z" transform="translate(-248.516 -431.671)"/>
        </g>
      </g>
      <g id="Group_245" data-name="Group 245" transform="translate(32.622 47.826)">
        <g id="Group_244" data-name="Group 244">
          <path id="Path_640" data-name="Path 640" d="M249.514,365.139a1,1,0,0,0-1,1v2.994a1,1,0,0,0,2,0v-2.994A1,1,0,0,0,249.514,365.139Z" transform="translate(-248.516 -365.139)"/>
        </g>
      </g>
      <g id="Group_247" data-name="Group 247" transform="translate(32.622 39.093)">
        <g id="Group_246" data-name="Group 246">
          <path id="Path_641" data-name="Path 641" d="M249.514,298.608a1,1,0,0,0-1,1V302.6a1,1,0,0,0,2,0v-2.994A1,1,0,0,0,249.514,298.608Z" transform="translate(-248.516 -298.608)"/>
        </g>
      </g>
      <g id="Group_249" data-name="Group 249" transform="translate(42.553 56.256)">
        <g id="Group_248" data-name="Group 248">
          <path id="Path_642" data-name="Path 642" d="M336.211,429.355H325.168a1,1,0,0,0,0,2h11.043a1,1,0,0,0,0-2Z" transform="translate(-324.17 -429.355)"/>
        </g>
      </g>
      <g id="Group_251" data-name="Group 251" transform="translate(42.553 60.974)">
        <g id="Group_250" data-name="Group 250">
          <path id="Path_643" data-name="Path 643" d="M336.211,465.3H325.168a1,1,0,0,0,0,2h11.043a1,1,0,0,0,0-2Z" transform="translate(-324.17 -465.299)"/>
        </g>
      </g>
      <g id="Group_253" data-name="Group 253" transform="translate(42.553 51.538)">
        <g id="Group_252" data-name="Group 252">
          <path id="Path_644" data-name="Path 644" d="M336.211,393.413H325.168a1,1,0,0,0,0,2h11.043a1,1,0,0,0,0-2Z" transform="translate(-324.17 -393.413)"/>
        </g>
      </g>
      <g id="Group_255" data-name="Group 255" transform="translate(42.553 37.383)">
        <g id="Group_254" data-name="Group 254">
          <path id="Path_645" data-name="Path 645" d="M336.211,285.583H325.168a1,1,0,0,0,0,2h11.043a1,1,0,0,0,0-2Z" transform="translate(-324.17 -285.583)"/>
        </g>
      </g>
      <g id="Group_257" data-name="Group 257" transform="translate(42.553 46.82)">
        <g id="Group_256" data-name="Group 256">
          <path id="Path_646" data-name="Path 646" d="M336.211,357.469H325.168a1,1,0,0,0,0,2h11.043a1,1,0,0,0,0-2Z" transform="translate(-324.17 -357.469)"/>
        </g>
      </g>
      <g id="Group_259" data-name="Group 259" transform="translate(42.553 42.102)">
        <g id="Group_258" data-name="Group 258">
          <path id="Path_647" data-name="Path 647" d="M336.211,321.527H325.168a1,1,0,0,0,0,2h11.043a1,1,0,0,0,0-2Z" transform="translate(-324.17 -321.527)"/>
        </g>
      </g>
      <g id="Group_261" data-name="Group 261" transform="translate(4.166 45.052)">
        <g id="Group_260" data-name="Group 260">
          <path id="Path_648" data-name="Path 648" d="M32.733,344a1,1,0,0,0-1,1v2.6a1,1,0,0,0,2,0V345A1,1,0,0,0,32.733,344Z" transform="translate(-31.735 -344.004)"/>
        </g>
      </g>
      <g id="Group_263" data-name="Group 263" transform="translate(4.166 51.939)">
        <g id="Group_262" data-name="Group 262">
          <path id="Path_649" data-name="Path 649" d="M32.733,396.469a1,1,0,0,0-1,1v2.6a1,1,0,0,0,2,0v-2.6A1,1,0,0,0,32.733,396.469Z" transform="translate(-31.735 -396.469)"/>
        </g>
      </g>
      <g id="Group_265" data-name="Group 265" transform="translate(4.166 58.826)">
        <g id="Group_264" data-name="Group 264">
          <path id="Path_650" data-name="Path 650" d="M32.733,448.934a1,1,0,0,0-1,1v2.6a1,1,0,0,0,2,0v-2.6A1,1,0,0,0,32.733,448.934Z" transform="translate(-31.735 -448.934)"/>
        </g>
      </g>
      <g id="Group_267" data-name="Group 267" transform="translate(61.425 54.962)">
        <g id="Group_266" data-name="Group 266">
          <path id="Path_651" data-name="Path 651" d="M468.938,419.5a1,1,0,0,0-1,1v2.825a1,1,0,0,0,2,0V420.5A1,1,0,0,0,468.938,419.5Z" transform="translate(-467.94 -419.501)"/>
        </g>
      </g>
      <g id="Group_269" data-name="Group 269" transform="translate(46.322 19.23)">
        <g id="Group_268" data-name="Group 268">
          <path id="Path_652" data-name="Path 652" d="M366.059,147.293H353.882a1,1,0,0,0,0,2h12.177a1,1,0,0,0,0-2Z" transform="translate(-352.884 -147.293)"/>
        </g>
      </g>
      <g id="Group_271" data-name="Group 271" transform="translate(53.508 23.422)">
        <g id="Group_270" data-name="Group 270">
          <path id="Path_653" data-name="Path 653" d="M417.41,179.228h-8.783a1,1,0,1,0,0,2h8.783a1,1,0,1,0,0-2Z" transform="translate(-407.629 -179.228)"/>
        </g>
      </g>
      <g id="Group_273" data-name="Group 273" transform="translate(8.194 7.453)">
        <g id="Group_272" data-name="Group 272">
          <path id="Path_654" data-name="Path 654" d="M72.207,57.571H63.423a1,1,0,0,0,0,2h8.783a1,1,0,0,0,0-2Z" transform="translate(-62.425 -57.571)"/>
        </g>
      </g>
      <g id="Group_275" data-name="Group 275" transform="translate(3.204 10.78)">
        <g id="Group_274" data-name="Group 274">
          <path id="Path_655" data-name="Path 655" d="M34.189,82.916H25.406a1,1,0,1,0,0,2H34.19a1,1,0,1,0,0-2Z" transform="translate(-24.408 -82.916)"/>
        </g>
      </g>
    </g>
  </g>
</svg>
