<svg xmlns="http://www.w3.org/2000/svg" width="67" height="67" viewBox="0 0 67 67">
  <g id="SVG_-_Idea_Cloud" data-name="SVG - Idea Cloud" transform="translate(22912 22973)">
    <g id="_007-design-thinking" data-name="007-design-thinking" transform="translate(-22913 -22974)">
      <g id="Group_32" data-name="Group 32" transform="translate(40.914 8.881)">
        <path id="Path_35" data-name="Path 35" d="M46.334,8.293l-8.4,8.4.033.034A18.4,18.4,0,0,1,48.726,27.483l.014.014,8.4-8.4Z" transform="translate(-37.935 -8.293)" fill="#fff"/>
      </g>
      <g id="Group_33" data-name="Group 33" transform="translate(7.484 40.695)">
        <path id="Path_36" data-name="Path 36" d="M17.806,58.554,26.656,49.7c-.018-.039-.041-.076-.061-.115l-4.883-6.044a22.139,22.139,0,0,1-4.684-5.8l-.014-.017L7,47.747Z" transform="translate(-7 -37.733)" fill="#fff"/>
      </g>
      <g id="Group_36" data-name="Group 36" transform="translate(40.486 33.419)">
        <g id="Group_34" data-name="Group 34" transform="translate(0.442)">
          <path id="Path_37" data-name="Path 37" d="M62.8,49.371H65.02V42.887H62.8a2.118,2.118,0,0,1-1.488-3.593l1.572-1.573L58.3,33.134l-1.575,1.573a2.058,2.058,0,0,1-2.2.473l-.109-.05a2.06,2.06,0,0,1-1.276-1.911V31h-3.3c.021.36.054.715.054,1.081a13.169,13.169,0,0,1-2.59,8.164l.09-.1A6.476,6.476,0,1,1,43.7,44.2c-2.237,2.182-4.467,4.369-5.51,7.745l-.045-.022a2.142,2.142,0,0,1-.2,3.664l3.536,3.537,1.575-1.573a2.049,2.049,0,0,1,2.2-.473l.109.048a2.069,2.069,0,0,1,1.277,1.914v2.221h6.484V59.037a2.118,2.118,0,0,1,3.592-1.488L58.3,59.123l4.586-4.586-1.572-1.573a2.09,2.09,0,0,1-.425-2.314A2.063,2.063,0,0,1,62.8,49.371Z" transform="translate(-37.948 -31)" fill="#fff"/>
        </g>
        <g id="Group_35" data-name="Group 35" transform="translate(0 20.622)">
          <path id="Path_38" data-name="Path 38" d="M38.179,50.382a2.182,2.182,0,0,0-.64-.3Z" transform="translate(-37.539 -50.083)" fill="#f0bc5e"/>
        </g>
      </g>
      <g id="Group_37" data-name="Group 37" transform="translate(1 1)">
        <path id="Path_39" data-name="Path 39" d="M49.242,48.484A3.242,3.242,0,1,0,46,45.242,3.246,3.246,0,0,0,49.242,48.484Zm0-4.323a1.081,1.081,0,1,1-1.081,1.081A1.082,1.082,0,0,1,49.242,44.161Z" transform="translate(2.629 2.306)" fill="rgba(29,13,1,0.98)"/>
        <path id="Path_40" data-name="Path 40" d="M68,9.722A8.722,8.722,0,0,0,53.111,3.555L40.619,16.048a19.2,19.2,0,0,0-5.1-.952,8.6,8.6,0,0,0-9.876-4.032A10.785,10.785,0,0,0,5.609,18.569,6.483,6.483,0,0,0,7.484,31.258h7.839a19.594,19.594,0,0,0-.274,3.242,14.837,14.837,0,0,0,1.15,5.967l-9.64,9.642L1.193,64.056A2.876,2.876,0,0,0,1,65.1a2.9,2.9,0,0,0,3.945,2.71l13.947-5.364,7.049-7.05a3.158,3.158,0,0,0,.756,2.882,3.214,3.214,0,0,0,1.578,5.284,6.582,6.582,0,0,0,12.449,0A3.214,3.214,0,0,0,42.3,58.274a3.182,3.182,0,0,0,.117-4.181,13.936,13.936,0,0,1,2.952-4.606,7.562,7.562,0,1,0,7.5-8.5c-.106,0-.209.011-.313.015a14.625,14.625,0,0,0,1.394-6.5,19.146,19.146,0,0,0-1.011-6.1L65.445,15.89A8.67,8.67,0,0,0,68,9.722ZM3.161,24.774a4.323,4.323,0,0,1,8.645,0h2.161A6.486,6.486,0,0,0,7.761,18.3a8.636,8.636,0,0,1,15.9-6.389,8.652,8.652,0,0,0-4.235,6.511,4.322,4.322,0,0,0-3.3,4.186H18.29a2.161,2.161,0,1,1,4.323,0h2.161A4.316,4.316,0,0,0,21.6,18.465a6.476,6.476,0,1,1,12.66,2.573,5.392,5.392,0,0,0-3,4.816h2.161A3.242,3.242,0,1,1,36.661,29.1H7.484A4.327,4.327,0,0,1,3.161,24.774ZM29.1,31.258V34.5a3.246,3.246,0,0,0,3.242,3.242h8.645a1.081,1.081,0,1,1,0,2.161H30.177a3.242,3.242,0,0,0,0,6.484h2.161a1.082,1.082,0,0,1,1.081,1.081v5.4H29.1a3.2,3.2,0,0,0-.64.065c-1.234-3.033-3.354-5.115-5.418-7.128-3-2.923-5.829-5.685-5.829-11.308a17.42,17.42,0,0,1,.333-3.242ZM40.984,56.113A1.082,1.082,0,0,1,39.9,57.194H29.1a1.081,1.081,0,0,1,0-2.161H39.9A1.082,1.082,0,0,1,40.984,56.113ZM4.171,65.789a.743.743,0,0,1-.961-.959l1.083-2.816,2.692,2.692Zm13.518-5.2-8.5,3.268-4.05-4.05,3.268-8.5,8.847-8.847a24.228,24.228,0,0,0,3.559,4.192l-8.693,8.693,1.528,1.528,8.708-8.708a19.616,19.616,0,0,1,3.473,4.276ZM34.5,65.839a4.44,4.44,0,0,1-3.808-2.161h7.616A4.44,4.44,0,0,1,34.5,65.839Zm5.4-4.323H29.1a1.081,1.081,0,1,1,0-2.161H39.9a1.081,1.081,0,1,1,0,2.161Zm.64-8.58a3.2,3.2,0,0,0-.64-.065H35.581v-5.4a3.246,3.246,0,0,0-3.242-3.242H30.177a1.081,1.081,0,1,1,0-2.161H40.984a3.242,3.242,0,0,0,0-6.484H32.339A1.082,1.082,0,0,1,31.258,34.5V31.258h5.4a5.4,5.4,0,1,0,0-10.806c-.03,0-.058.009-.089.009a8.509,8.509,0,0,0,.089-1.089,8.657,8.657,0,0,0-.255-2.049A17.383,17.383,0,0,1,51.79,34.5c0,5.623-2.831,8.385-5.829,11.308C43.9,47.821,41.777,49.9,40.543,52.936Zm12.328-9.791a5.456,5.456,0,1,1-5.213,4.026,32.25,32.25,0,0,0,3.379-3.686,5.34,5.34,0,0,1,1.834-.34ZM48.956,21.573l6.524-6.525L53.952,13.52,47.43,20.042a19.59,19.59,0,0,0-4.648-3.1L51.79,7.931l9.278,9.278-9.014,9.014a19.612,19.612,0,0,0-3.1-4.65ZM62.6,15.682,53.318,6.4l1.321-1.321a6.561,6.561,0,0,1,9.278,9.278Z" transform="translate(-1 -1)" fill="rgba(29,13,1,0.98)"/>
      </g>
    </g>
  </g>
</svg>
