<svg xmlns="http://www.w3.org/2000/svg" width="53" height="33.915" viewBox="0 0 53 33.915"><g transform="translate(-4377 185.156)"><path d="M3.541,1.377C4.7,2.9,9,2.24,9,4.726a4.5,4.5,0,1,1-9,0C0,2.24,2.38-.146,3.541,1.377Z" transform="translate(4380.751 -174.048)" fill="#93c7e9"/><g transform="translate(4377 -185.156)"><g transform="translate(14.909 0)"><path d="M165.036,111.29l-4.522-2.005a.884.884,0,0,1-.526-.807v-1.239a6.569,6.569,0,0,0,2.5-5.151v-1.744a1.608,1.608,0,0,0,.832-1.406v-.169a6.6,6.6,0,0,0-6.6-6.585h-1.663a6.6,6.6,0,0,0-6.6,6.585V100.3a1.627,1.627,0,0,0,.621,1.3,1.516,1.516,0,0,0,.211.136v.343a6.569,6.569,0,0,0,2.5,5.151v1.239a.884.884,0,0,1-.526.807l-4.522,2.005a4.1,4.1,0,0,0-2.438,3.742v10.29a.778.778,0,0,0,1.556,0v-10.29a2.529,2.529,0,0,1,.016-.267l2.084,2.079a1.7,1.7,0,0,1,.5,1.211v7.267a.778.778,0,0,0,1.556,0v-7.267a3.24,3.24,0,0,0-.959-2.309l-2.484-2.478a2.542,2.542,0,0,1,.8-.559l4.446-1.971,3.3,3.289v11.3a.778.778,0,0,0,1.556,0v-11.3l3.3-3.289,4.446,1.971a2.541,2.541,0,0,1,.8.559l-2.484,2.478a3.24,3.24,0,0,0-.959,2.309v7.267a.778.778,0,0,0,1.556,0v-7.267a1.7,1.7,0,0,1,.5-1.211l2.084-2.079a2.525,2.525,0,0,1,.016.267v10.29a.778.778,0,0,0,1.556,0v-10.29A4.1,4.1,0,0,0,165.036,111.29Zm-9.153,1.317-2.893-2.886a2.427,2.427,0,0,0,.344-1.243v-.316a6.609,6.609,0,0,0,5.1,0v.316a2.427,2.427,0,0,0,.344,1.243Zm0-5.487a5.044,5.044,0,0,1-5.044-5.032v-.349a4.6,4.6,0,0,0,1.413-.915.777.777,0,1,0-1.056-1.141,2.8,2.8,0,0,1-1.156.688l-.021,0a.157.157,0,0,1-.013-.07V98.769a5.044,5.044,0,0,1,5.044-5.032h1.663a5.044,5.044,0,0,1,5.044,5.032v.169a.05.05,0,0,1-.035.051c-4.66.918-7-.812-7.786-1.6a.777.777,0,0,0-1.1,1.1c2.417,2.411,5.943,2.454,8.09,2.2v1.4A5.044,5.044,0,0,1,155.883,107.12Z" transform="translate(-144.292 -92.184)"/></g><g transform="translate(0 4.159)"><path d="M14.033,143v-1.659a5.748,5.748,0,0,0-2.645-4.833,3.273,3.273,0,1,0-6.248,0A5.748,5.748,0,0,0,2.5,141.336V143a5.746,5.746,0,0,0,2.5,4.734v1.707a.878.878,0,0,1-.489.79l-2.692,1.342A3.246,3.246,0,0,0,0,154.488v6.757a.778.778,0,0,0,1.556,0v-6.422l1.268,1.264a1.7,1.7,0,0,1,.5,1.211v3.946a.778.778,0,0,0,1.556,0V157.3a3.239,3.239,0,0,0-.959-2.308L2.16,153.23l-.026-.024a1.736,1.736,0,0,1,.372-.251L5.2,151.614a2.482,2.482,0,0,0,.386-.24l1.9,1.9v7.974a.778.778,0,0,0,1.556,0v-7.974l1.9-1.9a2.472,2.472,0,0,0,.386.24l.742.37a.776.776,0,1,0,.7-1.388l-.742-.37a.878.878,0,0,1-.489-.79v-1.707A5.746,5.746,0,0,0,14.033,143Zm-5.769-9.178a1.717,1.717,0,0,1,1.717,1.712,1.735,1.735,0,0,1-.027.306,5.783,5.783,0,0,0-3.377,0,1.7,1.7,0,0,1,1.687-2.017Zm0,3.318a4.212,4.212,0,0,1,4.212,4.2v.281a4.892,4.892,0,0,1-5.253-1.576.78.78,0,0,0-1.173-.083,5.093,5.093,0,0,1-2,1.271A4.211,4.211,0,0,1,8.264,137.135Zm0,14.717-1.8-1.793a2.451,2.451,0,0,0,.081-.623v-.947a5.794,5.794,0,0,0,3.434,0v.947a2.451,2.451,0,0,0,.081.623Zm0-4.656A4.212,4.212,0,0,1,4.052,143v-.161a6.246,6.246,0,0,0,2.5-1.243A7.021,7.021,0,0,0,8,142.64a6.2,6.2,0,0,0,2.974.766,6.537,6.537,0,0,0,1.5-.179A4.213,4.213,0,0,1,8.264,147.2Z" transform="translate(0 -132.265)"/></g><g transform="translate(37.304 5.742)"><path d="M374.613,164.326l-4.355-2.178a.881.881,0,0,1-.489-.792v-1.1a4.925,4.925,0,0,0,1.664-3.691v-.886h.054a.778.778,0,0,0,.778-.778v-1.663a4.943,4.943,0,0,0-4.937-4.937h-1.664a4.943,4.943,0,0,0-4.937,4.937V154.9a.778.778,0,0,0,.778.778h.054v.887a4.925,4.925,0,0,0,1.664,3.691v1.1a.88.88,0,0,1-.489.792.778.778,0,1,0,.7,1.392,2.481,2.481,0,0,0,.386-.241l1.9,1.9v10.491a.778.778,0,1,0,1.556,0V165.2l1.9-1.9a2.467,2.467,0,0,0,.386.241l4.214,2.107-1.278,1.278a3.252,3.252,0,0,0-.959,2.315v6.452a.778.778,0,1,0,1.556,0V169.24a1.706,1.706,0,0,1,.5-1.214l1.211-1.211a1.735,1.735,0,0,1,.057.438v8.439a.778.778,0,0,0,1.556,0v-8.439A3.255,3.255,0,0,0,374.613,164.326ZM362.282,153.96v-.725h0a3.384,3.384,0,0,1,3.381-3.381h1.664a3.384,3.384,0,0,1,3.381,3.381v.864a11.9,11.9,0,0,1-5.444-1.512.778.778,0,0,0-.982.1A5.1,5.1,0,0,1,362.282,153.96Zm4.212,9.819-1.8-1.8a2.465,2.465,0,0,0,.081-.625v-.166a4.933,4.933,0,0,0,3.434,0v.166a2.459,2.459,0,0,0,.081.625Zm0-3.836a3.384,3.384,0,0,1-3.381-3.381v-1.255h0a6.585,6.585,0,0,0,1.826-1.115,13.825,13.825,0,0,0,4.935,1.4v.966A3.384,3.384,0,0,1,366.495,159.943Z" transform="translate(-360.726 -148.298)"/></g></g></g></svg>