<svg xmlns="http://www.w3.org/2000/svg" width="70.265" height="67" viewBox="0 0 70.265 67"><ellipse cx="9.485" cy="9.485" rx="9.485" ry="9.485" transform="translate(32.973 31.618)" fill="#93c7e7"/><g transform="translate(0 0)"><path d="M70.119,20.592a1.373,1.373,0,0,0-1.842-.613l-1.458.73c.129-.43.207-.734.214-.759a6.444,6.444,0,0,0-1.455-6.519c-1.689-1.689-4.177-1.988-7.394-.888a36,36,0,0,0-8.975,5.095,32.666,32.666,0,0,0-10.613-3.877,33.131,33.131,0,0,0-9.995-.236,1.372,1.372,0,1,0,.35,2.722,30.316,30.316,0,0,1,8.033.039v.594a3.857,3.857,0,0,0,1.125,2.714l2.827,2.827c.9.9-.33,1.768-.718,2.54-3.919,3.473-8.377,7.715-13.549,12.887q-2.991,2.991-5.576,5.673v-.954a3.717,3.717,0,0,0-1.1-2.651l-7.177-7.179a.993.993,0,0,1-.293-.709V23.887a30.183,30.183,0,0,1,5.606-4.059,1.372,1.372,0,1,0-1.343-2.394C7.195,22.815.025,33.583.025,44.787.008,45.225,0,45.659,0,46.074a32.613,32.613,0,0,0,4.672,16.9,29.61,29.61,0,0,0-3.309,6.389c-1.1,3.217-.8,5.705.888,7.394,2.746,2.746,6.7,1.745,9.713.07a1.372,1.372,0,0,0-1.333-2.4c-1.88,1.044-4.644,2.184-6.439.389C2.734,73.361,3.5,70.1,6.342,65.476a33.276,33.276,0,0,0,3.271,3.805A32.6,32.6,0,0,0,32.82,78.894,32.818,32.818,0,0,0,51.7,19.231c6-4.2,10.22-5.576,11.937-3.859a3.809,3.809,0,0,1,.738,3.891c0,.009-.181.7-.437,1.441l-1.356-2a1.372,1.372,0,1,0-2.271,1.542l2.765,4.072a1.389,1.389,0,0,0,1.75.456l4.681-2.343a1.372,1.372,0,0,0,.613-1.841ZM50.528,21.766A30.1,30.1,0,0,1,62.568,50.521a1.091,1.091,0,0,1-.54-.3l-3.284-3.284a3.813,3.813,0,0,0-2.714-1.125H52.773a1.094,1.094,0,0,1-1.094-1.092V41.329a3.864,3.864,0,0,0-1.123-2.714l-7.683-7.685a1.1,1.1,0,0,1-.319-.771V26.681a1.079,1.079,0,0,1,.009-.132c2.471-2.172,4.719-4.025,6.787-5.6Q49.948,21.345,50.528,21.766ZM42.875,20.48l-2.829-2.828a1.1,1.1,0,0,1-.319-.771.357.357,0,0,1,0-.082,29.947,29.947,0,0,1,7.077,2.649q-1.458,1.136-3.031,2.448a3.821,3.821,0,0,0-.9-1.416ZM22.1,50.513h7.246a1.007,1.007,0,0,1,1.006,1.006v9.348a1.012,1.012,0,0,1-.295.711L19.1,72.534a.321.321,0,0,1-.546-.227V61.551a3.724,3.724,0,0,0-1.1-2.652l-3.513-3.512c1.606-1.878,3.408-3.889,5.425-6.059A3.741,3.741,0,0,0,22.1,50.513Zm-4.045-8.655a.993.993,0,0,1,.293.709V46.4q-2.922,3.109-5.3,5.828V47.217a3.755,3.755,0,0,0-3.752-3.75H2.857A30.02,30.02,0,0,1,9.778,26.745v5.283a3.717,3.717,0,0,0,1.1,2.651ZM2.746,46.211H9.293A1.007,1.007,0,0,1,10.3,47.217v6.856a3.766,3.766,0,0,0,.183,1.161c-1.408,1.7-2.655,3.286-3.756,4.784-.112.152-.219.3-.327.451A29.907,29.907,0,0,1,2.746,46.211Zm5.214,16.8q.467-.67.979-1.369,1.437-1.957,3.232-4.144l3.343,3.342a1,1,0,0,1,.293.71v9.332A30.447,30.447,0,0,1,7.96,63.012ZM21.544,73.971,32,63.518a3.776,3.776,0,0,0,1.1-2.652V51.518a3.754,3.754,0,0,0-3.75-3.75H22.1a1.006,1.006,0,0,1-.839-.452c2.208-2.328,4.649-4.828,7.349-7.527,4.178-4.179,7.88-7.74,11.2-10.771v1.141a3.857,3.857,0,0,0,1.125,2.714l7.681,7.683a1.1,1.1,0,0,1,.319.773v3.393a3.842,3.842,0,0,0,3.839,3.837H56.03a1.1,1.1,0,0,1,.773.321l3.283,3.283a3.829,3.829,0,0,0,1.955,1.054,29.875,29.875,0,0,1-1.5,4.542,4.752,4.752,0,0,0-.7-.053h-6.55a4.753,4.753,0,0,0-3.383,1.4l-1.9,1.9a4.83,4.83,0,0,0,0,6.764l2.572,2.572a30.149,30.149,0,0,1-29.037,3.626ZM58.906,61.052a30.671,30.671,0,0,1-4.666,6.131c-.486.5-.99.97-1.51,1.429l-2.777-2.777a2.063,2.063,0,0,1,0-2.885l1.9-1.9a2.054,2.054,0,0,1,1.442-.6h5.947C59.132,60.652,59.021,60.853,58.906,61.052Z" transform="translate(0 -11.894)"/><path d="M158.156,34.98a1.373,1.373,0,1,0,.743-1.794A1.386,1.386,0,0,0,158.156,34.98Z" transform="translate(-136.364 -30.174)"/></g></svg>