<svg xmlns="http://www.w3.org/2000/svg" width="65.626" height="67" viewBox="0 0 65.626 67"><g transform="translate(-4284.162 196)"><circle cx="2.5" cy="2.5" r="2.5" transform="translate(4320 -178)" fill="#93c7e9"/><g transform="translate(4284.162 -196)"><g transform="translate(0 0)"><path d="M70.8,18.645c-.506-1.908-3.157-2.446-6.228-3.069l-.351-.071c-.236-.048-.274-.091-.524-.368a4.5,4.5,0,0,0-2.617-1.531.766.766,0,0,1-.6-.409c-.595-.787-1.322-1.513-3.67-1.739-1.2-.116-1.264-.377-1.425-1.073a2.327,2.327,0,0,0-2.33-2.121,4.491,4.491,0,0,1-2.109-.308c-.179-.107-.269-.266-.5-.727a6.3,6.3,0,0,0-2.15-2.588A9.391,9.391,0,0,1,45.814,1.7c-.235-.374-.479-.761-.744-1.142A1.309,1.309,0,0,0,43.69.035c-3.565.856-4.683,1.238-5.224,2.124a2.089,2.089,0,0,0-.156,1.693c.106.432.215.879-.6,2.021a1.807,1.807,0,0,0-.3,1.135c0,.019,0,.041,0,.06A4.893,4.893,0,0,1,35.476,8.11a5.493,5.493,0,0,1-1.733.263c-1.2.052-3.159.138-3.552,2.71a2.559,2.559,0,0,1-1.432.113,2.29,2.29,0,0,1-1.615-1.272,4.766,4.766,0,0,0-5.385-2.29,2.384,2.384,0,0,0-1.433,2.995c.085.336.194.716.31,1.119a16.531,16.531,0,0,1,.709,3.267c-.029.017-.057.035-.084.054a1.308,1.308,0,0,0-.432-.25,2.306,2.306,0,0,0-1.479.1c-1.041.313-1.614.486-2.162-1.1a1.308,1.308,0,0,0-.972-.853c-2.128-.44-3.445-.338-4.263.376-.206-.129-.488-.312-.872-.573-1.157-.787-3.367-.306-4.518.343a2.154,2.154,0,0,0-1.312,2,2.028,2.028,0,0,0,1.007,1.593A3.094,3.094,0,0,0,5.4,19.3a3.155,3.155,0,0,0,1.912,2.064,4.321,4.321,0,0,0,1.863.52,3.5,3.5,0,0,1,1.729.663c2.434,1.384,5.042,3.464,5.379,4.99a1.039,1.039,0,0,1-.183.9c-.208.292-.493.692.116,2.436.376,1.078,1.249,2.934,2.925,3.523a7.992,7.992,0,0,1,.215,1.58,6.092,6.092,0,0,0,.674,2.885c-.055.122-.12.26-.175.376a11.391,11.391,0,0,0-.57,1.356,1.309,1.309,0,1,0,2.487.815,9.041,9.041,0,0,1,.445-1.045c.393-.825.984-2.066-.016-2.968a6.692,6.692,0,0,1-.235-1.613c-.106-1.419-.251-3.363-1.923-3.843-.7-.2-1.326-1.673-1.521-2.456a3.647,3.647,0,0,0,.316-2.512c-.667-3.019-4.867-5.691-6.641-6.7a5.912,5.912,0,0,0-2.851-1,1.815,1.815,0,0,1-.871-.253,2.5,2.5,0,0,1-.457-.278,5.821,5.821,0,0,1,.4-.545,2.56,2.56,0,0,0,.794-2.212,1.747,1.747,0,0,0-.55-.892,2.878,2.878,0,0,1,1.022-.105c1.468,1,2.157,1.382,2.941,1.2a1.629,1.629,0,0,0,1.047-.839,4.23,4.23,0,0,1,1.337.064,3.779,3.779,0,0,0,5.021,2.039,3.1,3.1,0,0,0,1.749.227,1.949,1.949,0,0,0,1.044-.442,1.941,1.941,0,0,0,.742-.684c.749-1.175.3-3.032-.414-5.526-.1-.358-.2-.7-.274-.984a2.382,2.382,0,0,1,1.943,1.088,4.981,4.981,0,0,0,5.5,2.634c1.419-.285,2.352-1.077,2.435-2.069a1.455,1.455,0,0,1,.132-.6,3.97,3.97,0,0,1,.971-.109,7.779,7.779,0,0,0,2.551-.431c2.5-.954,3.568-1.955,3.617-3.426a4.519,4.519,0,0,0,.891-3.617c.579-.223,1.659-.507,2.495-.716l.188.3a11.789,11.789,0,0,0,3.183,3.68,3.755,3.755,0,0,1,1.326,1.631c.713,1.414,1.476,2.425,4.705,2.472l.022.1c.21.906.646,2.791,3.724,3.088,1.4.135,1.59.389,1.833.711a3.282,3.282,0,0,0,2.089,1.38,1.971,1.971,0,0,1,1.271.735,3.273,3.273,0,0,0,1.946,1.18l.353.072A16.855,16.855,0,0,1,68.187,19.3a3.637,3.637,0,0,1-.657.7c-1.57,1.372-1.817,3.873-2.036,6.081a10.9,10.9,0,0,1-.461,2.7,4.582,4.582,0,0,0-1.825,1.178A3.344,3.344,0,0,1,61.517,31a3.586,3.586,0,0,0-3.245,3.386,3.308,3.308,0,0,0,2.2,3.576,4.921,4.921,0,0,1,1.468.541c.014.084.024.241.031.36a6.58,6.58,0,0,0,.308,1.753l-.045.034a2.286,2.286,0,0,0-1.151,1.824,1.953,1.953,0,0,0,.97,1.582,2.071,2.071,0,0,1,.491.441,2.377,2.377,0,0,0-2.223,1.123c-.589,1.215.363,2.329,1.283,3.406.166.194.4.463.577.7a2.674,2.674,0,0,0-.911,2.666,4.088,4.088,0,0,0,1.446,2.105,3.341,3.341,0,0,0,1.579.894c.2.018.379.032.546.044-.023.123-.044.253-.061.391-.135,1.1-.918,1.416-2.549,1.843-1.137.3-2.552.668-2.838,2.072a2.173,2.173,0,0,1-1.966,1.245c-.556-.029-1.023-.41-1.74-1.028a5.215,5.215,0,0,0-4.293-1.676A5.56,5.56,0,0,1,49.2,58.3c-.14-.044-.156-.064-.31-.256-.876-1.1-1.9-1.306-3.895-.791-3.875,1-5.743,3.152-5.663,6.563a1.886,1.886,0,0,0-.994.341c-.412.293-.412.293-.894.011a2.757,2.757,0,0,0-2.036-.476,2.137,2.137,0,0,1-.52.055c-.036-.114-.071-.3-.1-.425a2.58,2.58,0,0,0-1.017-1.843,2.241,2.241,0,0,0-1.794-.222,3.268,3.268,0,0,1-1.174.14c-.025-.037-.057-.09-.082-.133a2.356,2.356,0,0,0-2.839-1.174c-2.613.532-3.235.155-3.646-.1a2.543,2.543,0,0,0-1.381-.452c-1.05,0-1.306-.19-1.555-.374a2.53,2.53,0,0,0-.89-.465,9.435,9.435,0,0,1-2.218-.84l-.015-.009c0-.04,0-.083,0-.12a2.873,2.873,0,0,0-1.8-2.969c.267-.585.8-1.495,1.182-2.154A1.309,1.309,0,1,0,15.3,51.3c-1.238,2.123-1.985,3.4-1.6,4.529a1.71,1.71,0,0,0,.994,1.043,2.352,2.352,0,0,1,.877.5,2.489,2.489,0,0,1,0,.256,2.463,2.463,0,0,0,1.317,2.508,11.657,11.657,0,0,0,2.777,1.082l.08.059a4.555,4.555,0,0,0,3.016.889l.119.071c.966.587,2.189,1.1,5.528.423l.089-.016c.765,1.253,1.864,1.625,3.737,1.243a2.978,2.978,0,0,0,1.16,2.057,3.189,3.189,0,0,0,2.451.336c.071.033.186.1.274.152a3.415,3.415,0,0,0,1.767.57,3.213,3.213,0,0,0,1.714-.537,1.687,1.687,0,0,1,.408.2,1.309,1.309,0,0,0,2.149-1.252c-.708-3.3.2-4.774,3.487-5.618a4.232,4.232,0,0,1,1.137-.186l.06.075c.849,1.065,1.924,1.6,4.907,1.191.819-.112,1.327.288,2.227,1.064a5.482,5.482,0,0,0,3.312,1.66A4.742,4.742,0,0,0,61.9,60.5a8.587,8.587,0,0,1,.993-.3c1.54-.4,4.118-1.078,4.484-4.056a2.536,2.536,0,0,1,.315-1,1.507,1.507,0,0,0,.066-1.527,1.742,1.742,0,0,0-1.683-.737c-.284-.01-.692-.024-1.264-.069a2.813,2.813,0,0,1-1-1.012,1.263,1.263,0,0,1,.4-.335,1.736,1.736,0,0,0,.816-1.219c.161-1.048-.614-1.954-1.435-2.914l-.207-.243a2.462,2.462,0,0,0,1.724-1.632,2.858,2.858,0,0,0-.917-3.02,1.957,1.957,0,0,0,.688-2.327,3.758,3.758,0,0,1-.3-1.408,2.859,2.859,0,0,0-.733-1.99,5.643,5.643,0,0,0-2.7-1.274.933.933,0,0,1-.267-.848.97.97,0,0,1,.92-.984,5.61,5.61,0,0,0,3.157-1.691,4.374,4.374,0,0,1,.743-.593c1.944-.393,2.174-2.721,2.4-4.972.162-1.639.364-3.678,1.153-4.368.488-.426,1.973-1.723,1.547-3.329Z" transform="translate(-5.249 0.001)"/><path d="M236.581,109.043c2.18,0,5.1-3.769,5.667-4.524,1.3-1.749,3.494-5.2,3.494-8.651a9.32,9.32,0,0,0-2.751-6.547,9,9,0,0,0-6.37-2.676h-.068a9,9,0,0,0-6.38,2.676,9.32,9.32,0,0,0-2.751,6.547c0,3.453,2.189,6.9,3.494,8.651C231.478,105.275,234.4,109.043,236.581,109.043Zm-4.562-17.868a6.408,6.408,0,0,1,4.543-1.913h.024a6.387,6.387,0,0,1,4.557,1.913,6.686,6.686,0,0,1,1.981,4.693c0,1.9-1.021,4.393-2.8,6.85a11.981,11.981,0,0,1-3.743,3.693,11.981,11.981,0,0,1-3.743-3.693c-1.78-2.457-2.8-4.954-2.8-6.85A6.685,6.685,0,0,1,232.019,91.175Z" transform="translate(-198.347 -75.306)"/><path d="M271.346,134.5a3.926,3.926,0,1,0-3.926-3.926A3.93,3.93,0,0,0,271.346,134.5Zm0-5.235a1.309,1.309,0,1,1-1.309,1.309A1.31,1.31,0,0,1,271.346,129.264Z" transform="translate(-233.111 -110.073)"/><path d="M102.817,349.737a1.309,1.309,0,1,0,0-2.617h0a1.309,1.309,0,0,0,0,2.617Z" transform="translate(-88.911 -301.694)"/></g></g></g></svg>