<svg xmlns="http://www.w3.org/2000/svg" width="31.838" height="51" viewBox="0 0 31.838 51"><g transform="translate(-3602.41 -11480.23)"><g transform="translate(3602.41 11480.23)"><path d="M5.62,1.655c1.842,2.407,10.418-.048,10.418,3.881s-4.946,8.524-8.892,8.524A7.129,7.129,0,0,1,0,6.946C0,3.018,3.779-.753,5.62,1.655Z" transform="translate(8.377 11.198)" fill="#93c7e9"/><g transform="translate(0 0)"><g transform="translate(0 3.455)"><path d="M172.781,118.969l-6.211-2.811a1.24,1.24,0,0,1-.722-1.131v-1.737a9.28,9.28,0,0,0,3.427-7.221v-2.445a2.262,2.262,0,0,0,1.142-1.971v-.237a9.16,9.16,0,0,0-9.065-9.231h-2.285A9.16,9.16,0,0,0,150,101.415v2.153a2.3,2.3,0,0,0,.853,1.829,2.081,2.081,0,0,0,.289.191v.481a9.279,9.279,0,0,0,3.427,7.221v1.737a1.241,1.241,0,0,1-.722,1.132l-6.211,2.811a5.752,5.752,0,0,0-3.348,5.247V138.64a1.069,1.069,0,1,0,2.138,0V124.215a3.618,3.618,0,0,1,.022-.374l2.862,2.914a2.409,2.409,0,0,1,.691,1.7v10.187a1.069,1.069,0,1,0,2.138,0V128.453a4.591,4.591,0,0,0-1.317-3.237l-3.412-3.474a3.492,3.492,0,0,1,1.1-.784l6.106-2.763,4.528,4.611V138.64a1.069,1.069,0,1,0,2.138,0V122.805l4.528-4.611,6.106,2.763a3.49,3.49,0,0,1,1.1.784l-3.412,3.474a4.591,4.591,0,0,0-1.317,3.237v10.187a1.069,1.069,0,1,0,2.138,0V128.453a2.408,2.408,0,0,1,.691-1.7l2.862-2.914a3.624,3.624,0,0,1,.022.374V138.64a1.069,1.069,0,1,0,2.138,0V124.215A5.753,5.753,0,0,0,172.781,118.969Zm-12.571,1.847-3.973-4.046a3.456,3.456,0,0,0,.473-1.743v-.443a8.907,8.907,0,0,0,7,0v.443a3.455,3.455,0,0,0,.473,1.743Zm0-7.692a7,7,0,0,1-6.927-7.054v-.489c.667-.269,2.623-3.578,3.246-4.164.434-.408,1.411-1.491,1.01-1.933a1.056,1.056,0,0,0-1.511,0c-.535.5-3.322,4.041-3.841,4.179l-.028.005a.225.225,0,0,1-.018-.1v-2.153a7,7,0,0,1,6.927-7.055h2.285a7,7,0,0,1,6.927,7.055v.237a.07.07,0,0,1-.048.071c-6.4,1.287-9.61-1.139-10.693-2.242a1.055,1.055,0,0,0-1.511,0,1.1,1.1,0,0,0,0,1.539c3.319,3.38,8.162,3.441,11.11,3.08v1.967A7,7,0,0,1,160.211,113.123Z" transform="translate(-144.292 -92.184)"/></g><g transform="translate(11.466 0)"><path d="M15.438,136.213c0-2.179-2.5-3.948-4.734-3.948a4.276,4.276,0,0,0-4.091,4.225C6.612,136.9,15.438,136.613,15.438,136.213ZM10.7,133.739c1.174,0,2.856,1.059,2.856,2.2,0,.126-.738.525-.76.646a30.25,30.25,0,0,0-4.276-.469C7.8,136.119,9.529,133.739,10.7,133.739Z" transform="translate(-6.612 -132.265)"/></g></g></g></g></svg>